<?xml version="1.0" encoding="utf-8"?>
<!-- Generator: Adobe Illustrator 27.5.0, SVG Export Plug-In . SVG Version: 6.00 Build 0)  -->
<svg version="1.1" id="Layer_1" xmlns="http://www.w3.org/2000/svg" xmlns:xlink="http://www.w3.org/1999/xlink" x="0px" y="0px"
	 viewBox="0 0 103.6 53.5" style="enable-background:new 0 0 103.6 53.5;" xml:space="preserve">
<style type="text/css">
	.st0{fill-rule:evenodd;clip-rule:evenodd;fill:#B03A3F;}
	.st1{font-family:'GoudyOldStyleT-Regular';}
	.st2{font-size:17px;}
</style>
<path class="st0" d="M42.4,0.1c-0.1,0-0.3,0.2-0.6,0.5C41.3,1,41.3,1.1,41,1.2c-0.3,0.2-0.7,0.3-1.2,0.4c-0.2,0-1.4,0-5.1,0.1
	l-4.9,0l-0.2,0.1c-0.2,0.1-0.5,0.4-0.6,0.7c0,0.1-0.1,0.4-0.2,0.7c-0.1,0.3-0.6,2.8-1.2,5.6c-0.6,2.8-1.2,5.3-1.3,5.7
	c-0.1,0.6-0.2,0.7-0.2,1c0,0.3,0,0.4,0.1,0.5c0.1,0.2,0.3,0.4,0.5,0.5c0.3,0.1,1,0,2.2-0.2c0.9-0.2,1.3-0.2,2.1-0.2
	c1.1,0,1.8,0.1,2.7,0.4c1.5,0.5,2.8,1.5,3.7,2.7c0.6,0.9,1,2,1.1,3.2c0.1,0.5,0.1,2.1,0,2.6c-0.2,1.4-0.5,2.4-1,3.5
	c-0.9,1.8-2.3,3.3-4.1,4.3c-1.1,0.6-2.3,1-3.7,1.2c-0.6,0.1-2,0.1-2.5,0c-0.8-0.1-1.8-0.4-3.3-0.9l-1-0.3L23,32.8
	c-0.5,0.3-0.4,0.7,0.1,1.1c0.4,0.3,1.1,0.5,2,0.7c1,0.2,2.5,0.5,3.6,0.6c0.4,0.1,1.6,0,2.1,0c3-0.3,5.4-1.5,7.6-3.7
	c2.2-2.2,3.5-4.8,3.9-7.7c0.2-1.8,0.1-3.5-0.4-4.9c-0.2-0.5-0.6-1.4-0.9-1.8c-0.9-1.3-2.1-2.3-3.7-3.1c-1.6-0.8-3.3-1.2-5.3-1.2
	c-0.9,0-1.7,0.1-2.8,0.2c-0.4,0.1-0.8,0.1-0.9,0.1c-0.1,0-0.2,0-0.2,0c0,0,0.3-1.3,0.6-2.8c0.3-1.5,0.6-2.9,0.6-3.2
	c0.1-0.9,0.4-1.5,1-1.7c0.4-0.2,0.3-0.2,4.6-0.2c2.6,0,4.1,0,4.3,0c0.3,0,0.8-0.2,1-0.3c0.3-0.2,0.8-0.5,1-0.7
	c0.2-0.2,0.4-0.6,1-1.9c0.2-0.4,0.4-0.9,0.5-1c0.4-0.7,0.4-1.3-0.1-1.3C42.6,0,42.5,0,42.4,0.1z M8.5,0.9C8.3,1,8.1,1.1,8,1.2
	C6.5,2.4,4.7,3.4,3,3.9C2.2,4.2,1.1,4.5,1,4.6C0.6,4.8,0.1,5.2,0.1,5.5C0,5.7,0,5.9,0.1,6c0.1,0.1,0.1,0.1,0.3,0.1
	c0.2,0,0.6-0.1,1.1-0.3c0.8-0.4,1.2-0.5,1.8-0.4c0.5,0,0.8,0.1,1.1,0.3c0.4,0.2,0.7,0.7,0.8,1.2c0.1,0.4,0.1,1,0.1,12.5
	c0,12.4,0,11.3-0.2,12.1C4.9,32.1,4.5,32.6,4,33c-0.4,0.3-0.6,0.4-1.4,0.5c-1.1,0.1-1.6,0.3-1.8,0.4c-0.1,0.1-0.2,0.2-0.2,0.3
	c0,0.1,0.2,0.3,0.3,0.3c0.2,0,0.3,0,1.4,0c0.7,0,2,0,3-0.1c3-0.1,4.5-0.1,6.5,0c1.9,0.1,2,0.1,2.2-0.1c0.1-0.1,0.2-0.2,0.2-0.4
	c0-0.2-0.1-0.3-0.2-0.3c-0.1-0.1-0.2-0.1-1-0.1c-1.1-0.1-1.7-0.2-2.3-0.4c-0.7-0.3-1.1-0.6-1.4-1.3C9.1,31.4,9,30.8,8.9,30
	c0-0.2,0-4.5,0-13.2c0-14.1,0-13,0.2-14.2c0.1-0.7,0.2-1.3,0.1-1.5c0-0.2-0.2-0.4-0.3-0.4C8.8,0.7,8.7,0.7,8.5,0.9z M57.5,0.9
	C57.3,1,57.1,1.1,57,1.2c-1.5,1.2-3.3,2.2-4.9,2.7c-0.8,0.3-1.9,0.6-2,0.7c-0.4,0.2-0.8,0.6-0.9,0.8C49,5.7,49,5.9,49.1,6
	c0.1,0.1,0.1,0.1,0.3,0.1c0.2,0,0.6-0.1,1.1-0.3c0.8-0.4,1.2-0.5,1.8-0.4c0.5,0,0.8,0.1,1.1,0.3c0.4,0.2,0.7,0.7,0.8,1.2
	c0.1,0.4,0.1,1,0.1,12.5c0,12.4,0,11.3-0.2,12.1c-0.2,0.7-0.6,1.2-1.1,1.6c-0.4,0.3-0.6,0.4-1.4,0.5c-1.1,0.1-1.6,0.3-1.8,0.4
	c-0.1,0.1-0.2,0.2-0.2,0.3c0,0.1,0.2,0.3,0.3,0.3c0.2,0,0.3,0,1.4,0c0.7,0,2,0,3-0.1c3-0.1,4.5-0.1,6.5,0c1.9,0.1,2,0.1,2.2-0.1
	c0.1-0.1,0.2-0.2,0.2-0.4c0-0.2-0.1-0.3-0.2-0.3c-0.1-0.1-0.2-0.1-1-0.1c-1.1-0.1-1.7-0.2-2.3-0.4c-0.7-0.3-1.1-0.6-1.4-1.3
	c-0.2-0.5-0.4-1.1-0.5-1.8c0-0.2,0-4.5,0-13.2c0-14.1,0-13,0.2-14.2c0.1-0.7,0.2-1.3,0.1-1.5c0-0.2-0.2-0.4-0.3-0.4
	C57.8,0.7,57.7,0.7,57.5,0.9z M75.1,1.6c-0.3,0.2-0.4,0.3-0.6,1.1c-0.1,0.3-0.2,0.9-0.3,1.3c-0.6,2.3-0.7,3.3-0.7,4.3
	c0,0.6,0,0.6,0.1,0.8c0.1,0.2,0.2,0.4,0.4,0.4c0.3,0.1,0.5-0.1,0.6-0.5c0.3-0.9,0.4-1.1,0.5-1.4c0.2-0.3,0.4-0.7,0.6-0.9
	c0.4-0.4,1.4-0.9,2.3-1.1c0.9-0.2,1.3-0.2,6.3-0.2l4.5,0l0,0.4c-0.1,1.5-0.6,3.5-1.3,5.6c-0.9,2.3-2.1,5-3.5,7.5
	c-0.9,1.7-1.7,3.3-2.4,5.1c-1.4,3.6-2,6-2.1,8.9c-0.1,1.2,0,2.2,0.2,2.9c0.1,0.4,0.3,0.8,0.6,1.1c0.3,0.3,0.5,0.4,0.9,0.4
	c0.5,0,1.3-0.1,2-0.3c0.7-0.2,1-0.4,1.2-0.7c0.1-0.2,0.1-0.4-0.1-0.8c-0.4-0.8-0.5-1.4-0.7-2.2c-0.2-1.1-0.2-2.5-0.1-3.5
	c0.3-2.1,0.7-4.1,1.5-6.5c0.2-0.8,0.5-1.4,1.9-5.3c1.5-4.1,2.6-7.4,2.9-8.1C90.4,7.1,90.9,4.9,91,3c0-0.6,0-0.7,0-0.8
	c-0.1-0.2-0.3-0.4-0.5-0.5c-0.4-0.2,0.1-0.2-6.6-0.2c-4.7,0-6.3,0-6.6,0c-0.2,0-0.7,0-1.2-0.1C75.3,1.5,75.3,1.5,75.1,1.6z"/>
<text transform="matrix(1 0 0 1 67.2982 50.265)" class="st1 st2">Fund</text>
</svg>
