<?xml version="1.0" encoding="utf-8"?>
<!-- Generator: Adobe Illustrator 27.3.1, SVG Export Plug-In . SVG Version: 6.00 Build 0)  -->
<svg version="1.1" id="Layer_1" xmlns="http://www.w3.org/2000/svg" xmlns:xlink="http://www.w3.org/1999/xlink" x="0px" y="0px"
	 viewBox="0 0 517.4 4956.68" style="enable-background:new 0 0 517.4 4956.68;" xml:space="preserve">
<style type="text/css">
	.st0{fill:none;stroke:#000000;stroke-width:3;}
	.st1{fill:none;stroke:#D02026;stroke-width:2;}
	.st2{fill:none;stroke:#D02028;stroke-width:2;stroke-linecap:round;stroke-linejoin:round;}
	.st3{fill:none;stroke:#D02028;stroke-width:3;stroke-linecap:round;stroke-linejoin:round;}
	.st4{fill:none;stroke:#D02028;stroke-linecap:round;stroke-linejoin:round;}
	.st5{fill:none;stroke:#D02028;stroke-width:3.75;stroke-linecap:round;stroke-linejoin:round;}
	.st6{fill:none;stroke:#D02028;stroke-width:2.5;stroke-linecap:round;stroke-linejoin:round;}
	.st7{fill:none;stroke:#D02028;stroke-width:1.25;stroke-linecap:round;stroke-linejoin:round;}
	.st8{fill:none;stroke:#D02028;stroke-width:1.25;}
	.st9{fill:none;stroke:#D02028;stroke-width:2.5;}
	.st10{fill:none;stroke:#D02028;}
</style>
<path class="st0" d="M390.6,4956.68V547.06 M414.6,4956.68V547.06"/>
<path class="st1" d="M390.6,547.06c0-12-0.5-70.5-8.5-86c-9.06-17.56-14.33-42.5-34.5-68.5 M414.6,547.06c0-10.5-0.37-78.62-10-97.5
	c-12.5-24.5-9.5-37.67-34.5-62.5"/>
<g>
	<path class="st2" d="M234.51,292.33c8.75,12.77,13.08,25.94,32.23,31.68c6.9,2.38,13.39-1.58,16.89,5.05
		c13.69,17.72,32.54,36.54,49.42,52.28c6.18,3.27,10.95,4.88,14.95,11.88 M370.5,387.72c-3-6.38-11.5-10-14.6-15.59
		c-3.71-4.06-5.87-9.11-8.96-13.57"/>
	<path class="st2" d="M274.15,324.61c13.49-5.45,14.42-12.28,14.42-12.28"/>
	<path class="st3" d="M464.64,250.85c7.83,15.25,4.63,34.16-5.66,47.63c-10.09,16.54-20.9,33.96-38.2,44.56
		c-11.74,6.24-24.3,11.49-37.17,15.15c-12.97,2.18-26.26,0.79-39.13-0.89c-23.17-5.35-39.95-23.37-53.54-41.09
		c-7.31-7.43-8.44-17.62-9.06-27.33c-0.62-3.96-1.54-7.92-3.5-11.59"/>
	<path class="st4" d="M336.55,309.66c4.32-10.99,13.59-20.2,25.43-23.57c16.06-4.85,30.07-15.45,47.16-16.83
		c14.42-2.18,29.14-3.37,43.04-7.82c4.63-1.19,9.27-2.77,13.08-5.55"/>
	<path class="st4" d="M331.4,308.28c4.43-11.29,10.81-23.47,23.17-28.22c5.77-2.48,11.63-5.35,15.65-10.2
		c9.58-7.13,21.52-10.69,33.15-13.27c14-1.19,27.08-7.23,41.19-7.62"/>
	<path class="st4" d="M368.16,278.57c9.78-5.45,19.77-12.67,31.71-11.58c14.21-1.78,26.77-10.5,41.39-10.6
		c6.07-0.89,12.15-1.88,18.12-2.97"/>
	<path class="st4" d="M326.25,308.57c3.4-10.2,5.05-22.48,15.45-28.71c7.31-4.06,15.86-5.64,22.45-10.89"/>
	<path class="st4" d="M321.41,308.97c2.88-11.78,3.71-25.84,14.72-33.66c7.62-6.04,16.37-10.4,24.71-15.45"/>
	<path class="st4" d="M351.58,270.06c21.93-9.01,43.25-21.29,67.44-23.07c1.44-0.2,2.78-0.4,4.22-0.59"/>
	<path class="st4" d="M343.55,305.8c6.38-6.83,14.52-11.68,23.27-15.05c10.3-4.55,21.42-7.82,31.1-13.66
		c16.99-6.63,36.24-1.88,53.13-9.11c4.94-1.88,9.68-4.16,14.62-6.04"/>
	<path class="st4" d="M340.97,311.44c10.4-5.94,21.01-11.68,32.85-14.36c13.38-5.25,24.92-15.05,39.85-16.14
		c11.94-2.67,24.3-3.07,36.35-4.95c6.08-1.78,12.05-3.96,17.51-7.03"/>
	<path class="st4" d="M352.71,311.05c23.58-4.06,43.25-18.71,66.1-25.05c14.11-2.67,29.45-0.89,42.22-8.22
		c1.44-0.6,2.78-1.19,4.22-1.78"/>
	<path class="st4" d="M361.88,312.83c19.15-1.78,36.14-13.37,55.81-11.88c8.86-0.3,16.99,3.66,25.23,5.64c2.27,0.1,4.53,0.2,6.8,0.3
		"/>
	<path class="st4" d="M395.75,300.45c13.49-6.73,28.11-12.58,43.56-11.98c8.65-0.89,17.61-1.78,25.23-6.04"/>
	<path class="st4" d="M413.77,299.07c14.83-4.85,30.38-6.73,45.92-7.43"/>
	<path class="st4" d="M430.66,300.16c7.21-0.49,14.52-1.49,21.73-0.4"/>
	<path class="st4" d="M329.96,313.52c11.53,7.52,23.99,15.45,38.51,15.35c13.28-0.4,26.57-1.68,39.64-4.36
		c9.47-1.78,19.15-1.19,28.11,2.08"/>
	<path class="st4" d="M343.86,315.7c20.9,8.22,44.58,8.32,66.11,2.28c9.47-1.88,18.95,0.6,28.42,1.58"/>
	<path class="st4" d="M364.86,315.31c10.81,0.2,22.04,1.39,32.33-2.48c15.55-2.38,31.61-2.08,47.06,0.3"/>
	<path class="st4" d="M324.81,315.31c10.19,9.01,22.34,17.92,36.76,18.12c9.68,2.08,20.08,3.66,29.45-0.2
		c11.53-2.28,23.68-1.98,35.21,0.2l1.24,0.3l1.34,0.3"/>
	<path class="st4" d="M318.53,317.09c8.55,7.52,17.81,14.46,29.04,17.82c11.94,3.96,24.4,7.13,37.17,6.83
		c9.06,0.2,18.12,0,27.18,0.1"/>
	<path class="st4" d="M314.51,318.47c7.52,6.93,14.93,14.65,24.92,18.42c17.71,9.41,38.3,12.18,58.28,12.18l1.44,0.1l1.44,0.1"/>
	<path class="st4" d="M308.23,319.56c9.68,8.71,18.95,18.32,30.99,24.06c15.03,8.32,32.85,10.4,49.84,10.6"/>
	<path class="st4" d="M302.36,320.95c12.25,12.67,25.43,25.84,43.25,30.99c8.13,2.77,16.58,4.16,24.82,6.53"/>
	<path class="st4" d="M316.67,312.53c0.62-12.97,1.44-27.13,10.91-37.23c2.37-2.67,5.05-5.05,7.52-7.62"/>
	<path class="st4" d="M309.67,313.92c2.06-13.57,4.02-28.12,12.46-39.61"/>
	<path class="st4" d="M301.64,313.23c3.91-12.57,5.46-26.83,15.03-36.73"/>
	<path class="st4" d="M294.64,308.97c2.16-12.28,9.68-22.67,16.58-32.87"/>
	<path class="st4" d="M289.08,301.15c0.93-9.7,8.24-17.23,14.31-24.36"/>
	<path class="st4" d="M283.83,290.75c3.91-4.95,7.83-9.9,11.74-14.85"/>
	<path class="st5" d="M71.51,255.9c-15.96-5.64-29.65-16.04-40.05-29.21c-7.1-7.72-16.47-14.06-18.02-24.95
		c-2.06-6.24-6.28-14.56-3.81-19.11c-12.66-6.24-6.69-22.08-3.81-32.18c5.05-8.81-5.77-17.92,0.62-26.14
		c8.96-3.37,0.93-12.08,6.49-18.32c4.12-6.44,10.71-12.87,19.05-13.66c-0.82-10.2,9.37-15.55,13.49-23.96
		c8.86-7.43,16.47-17.03,28.83-18.71c10.5-5.84,22.96-7.03,32.85-14.16c9.58-6.34,20.08-10.1,31.61-11.68
		c15.34-2.87,30.48-6.34,44.58-12.87c25.43-4.06,51.59-9.21,77.43-6.14c10.61,3.76,21.21-3.56,32.23-2.77
		c15.34-1.19,30.38,4.26,45.51,5.94c12.67,3.76,25.54,8.12,37.58,13.17c5.97,7.43,17.4,4.65,23.79,11.98
		c9.37,7.33,22.34,12.48,27.29,23.37c0.51,6.93,10.3,9.7,14.93,14.56c12.36,7.62,20.7,19.7,29.14,30.89
		c1.85,6.14,5.66,13.66,3.6,18.71c11.84,10,17.09,24.75,25.64,37.13c1.55,8.32,7.93,16.54,5.77,25.05c6.38,4.65,7,13.76,9.27,20.69
		c-1.23,10-0.1,20.89-7.93,28.81c-3.91,7.92-10.19,13.66-18.43,17.62c-7.83,4.56-17.92,3.76-26.26,0.69
		c-20.49-5.94-41.91-5.84-62.81-9.21c-11.43,4.65-21.52,11.88-33.88,14.36c-11.53,3.57-23.58,9.41-35.83,5.64
		c0.31,10.5-12.66,9.9-20.49,11.29c-14.93,2.87-30.27,3.46-45.1,5.25c-16.48,8.61-34.18,15.55-49.42,25.94
		c-6.49,7.72-16.58,12.38-26.87,9.9c-11.33-0.79-20.29-9.31-30.68-13.17c-8.86-5.45-20.8-1.98-28.93-9.41
		c-6.69-3.07-11.43-9.7-15.03-15.45c-4.12-5.35,5.46-17.52-2.47-17.52c-13.18-0.89-22.34,0.4-39.85-2.38L71.51,255.9z"/>
	<path class="st6" d="M134.42,276.89c19.97-6.83,25.43-29.11,42.01-40.1c12.36-8.12,25.74-21.29,42.11-15.25
		c21.01,6.73,43.86-0.79,60.24-13.96c11.84-10.1,27.49-15.35,43.25-13.17c18.33,4.65,22.45-12.67,28.11-24.95
		c7.11-13.37,23.89-18.42,27.6-34.06c9.17-13.66,14.93-29.11,17.71-45.05c0.31-11.78,8.24-20.69,15.96-29.11
		c1.13-1.58,2.16-3.17,2.88-4.95"/>
	<path class="st7" d="M173.96,302.83c11.02-7.33,21.11-16.04,28.62-26.73c6.49-5.64,15.86-3.96,23.78-5.84
		c7.41-0.2,14.21-3.07,20.18-7.03c5.35-4.16,11.22,0.6,16.06,3.17c5.35,3.37,10.6,7.03,16.37,9.9"/>
	<path class="st5" d="M114.14,258.37c9.06-20.1,18.12-40.99,37.89-53.67c20.49-15.25,44.59-33.47,71.97-31.09
		c26.77,9.31,31.4-22.18,50.56-31.19c16.68-9.11,42.42,2.57,53.23-17.72c9.16-17.43,11.94-15.55,16.78-21.19"/>
	<path class="st6" d="M258.19,156.88c-5.46-19.8-13.28-32.28-8.34-52.87c1.85-9.9,13.69-30,21.83-36.24
		c17.71-26.34,17.61-20.2,42.22-27.23"/>
	<path class="st7" d="M388.85,112.13c-6.18-21.09-28.52-15.55-36.86-35.65c-5.66-8.61-11.12-34.26-16.58-42.97
		c-11.02-5.15-20.08-15.25-21.31-27.33c-0.21-0.79-0.52-1.58-0.72-2.38"/>
	<path class="st6" d="M433.95,189.85c14.11-2.87,28.32-6.04,42.11-10c3.81,0.89,8.34,0.59,11.02,3.76
		c4.53,3.46,8.96,7.13,12.05,11.88c5.25,6.14,9.16,13.27,12.77,20.4l0.31,0.49l0.31,0.5"/>
	<path class="st7" d="M475.04,179.36c2.06-6.73,5.87-14.06,2.88-21.09c-3.6-9.41-11.43-16.44-16.06-25.15
		c-1.85-4.55-3.91-9.6-8.55-12.08c-4.43-3.07-10.09-3.46-15.34-4.06c-8.44-2.28-12.25-10.69-17.5-16.64"/>
	<path class="st7" d="M388.24,220.85c-7,1.68-13.8,4.36-21.01,5.25c-10.4,1.09-20.8,1.78-31.2,1.68c-3.5,0-6.59-1.88-8.75-4.26
		c-3.5-3.66-6.38-7.92-9.78-11.68c-0.82-0.99-1.75-1.98-2.57-2.97"/>
	<path class="st7" d="M284.24,250.85c5.87-2.97,13.39-4.16,17.2-10"/>
	<path class="st7" d="M367.95,174.31c11.64,3.07,26.57,12.38,16.17,25.05c-1.13,2.18-2.47,4.16-4.22,5.94"/>
	<path class="st7" d="M415.32,159.85c-7,2.57-14,5.45-20.8,8.52"/>
	<path class="st7" d="M468.86,247.38c13.08-7.82,22.45-22.38,19.26-37.43c-0.52-3.76-1.55-7.53-3.09-11.09"/>
	<path class="st7" d="M343.55,188.86c4.32,3.57,13.49,5.25,11.94,12.48"/>
	<path class="st7" d="M355.49,195.89c2.26-0.99,4.53-1.98,6.79-2.97"/>
	<path class="st7" d="M358.58,256.39l-7.31-8.02"/>
	<path class="st7" d="M455.89,164.31c0-9.31-0.21-32.38-15.65-26.54c-11.02,4.85-12.56,20.1-21.83,21.49"/>
	<path class="st7" d="M480.29,162.33c3.5-2.38,6.9-4.65,10.4-7.03"/>
	<path class="st8" d="M114.14,189.85c-5.77-2.38-11.94-5.84-14.21-11.88c-2.47-4.95-2.16-11.98-7.83-14.85
		c-3.91-3.96-11.33-4.75-12.87-10.69c-0.31-6.34-1.44-13.57-7.41-17.43c-4.53-3.07-7.83-8.81-14-8.51
		c-5.56,0.1-10.91,6.04-16.27,3.17c-6.28-4.06-9.16-11.09-12.56-17.23c-2.47-5.25-3.09-11.88,0.51-16.83
		c0.51-0.89,1.03-1.78,1.44-2.67"/>
	<path class="st8" d="M53.29,147.87c-4.12-0.69-8.34-1.29-12.46-1.98c-3.09,1.29-6.28,2.67-9.37,3.96
		c-1.24,2.97-4.12,5.74-3.29,9.31c0.62,6.54,1.34,13.57,5.87,18.81c4.02,4.26,7,9.31,9.37,14.55c1.54,2.57,1.96,5.64,1.13,8.51v0.89
		"/>
	<path class="st8" d="M183.85,66.28c2.78-2.67,5.66-5.35,8.34-8.12c2.88-5.64,5.77-11.39,9.47-16.63c1.24-2.08,2.57-4.16,4.63-5.54
		c2.68-2.08,5.46-4.16,8.13-6.34"/>
	<path class="st8" d="M78.82,202.82c12.56-1.78,25.23-3.56,37.89-4.16c2.57-0.1,5.15-0.1,7.41-1.39c2.57-0.99,5.15-1.98,7.72-2.97"
		/>
	<path class="st8" d="M294.54,57.27c17.71,14.46,13.49,30.5,13.49,30.5"/>
	<path class="st8" d="M282.7,105.69c2.06,24.36,34.49,28.22,34.49,28.22"/>
	<path class="st8" d="M214.02,220.35c-8.75-7.92-10.09-21.49-4.63-31.49"/>
	<path class="st8" d="M284.76,168.86c7.62,1.49,15.45,4.26,23.27,2.48c7.83,1.09,9.78-8.02,12.67-13.07"/>
	<path class="st8" d="M368.47,39.35c-1.24-3.27,0.93-7.23,4.32-8.22c2.68-1.78,4.53-4.36,7.11-6.24"/>
	<path class="st8" d="M286.81,8.36c7.72,1.78,12.87,15.15,1.65,15.64c-9.47,1.58-19.26,2.97-27.39,8.42
		c-6.49,3.96-15.86,9.01-14.31,17.72c4.53,6.24,0.72,12.28-6.59,13.66c-7.31,5.35-9.99,14.26-12.15,22.58
		c-3.81,7.23-6.69,16.24-14.11,20.69c-10.09,3.76-7.72,14.75-4.74,22.08c0.31,9.51-10.4,12.48-14.52,19.51
		c-1.65,7.92-8.13,12.08-14,16.83c-6.8,4.85-1.24,11.98,3.91,15.35c0.82,0.59,1.65,1.09,2.47,1.58"/>
	<path class="st9" d="M249.33,9.35c-10.92,1.78-14.93,13.17-16.78,22.28c-6.59,6.44-9.06,15.84-9.06,23.86
		c-5.35,5.74-16.68,10.1-13.9,19.6c1.54,11.78-14.52,11.39-22.76,13.07c-8.75-0.1-20.9-2.77-25.64,6.53c-4.84,9.6,0,20.4-1.24,30.6
		c-1.75,15.05-11.84,27.92-13.39,43.17c-1.54,10.79-0.72,21.68,0.82,32.48"/>
	<path class="st8" d="M210.93,12.32c-0.51,4.26-5.56,5.45-9.37,5.74c-10.4,1.09-19.87,5.45-29.96,7.92
		c-6.9,2.38-13.39,5.84-19.98,8.81c-3.29,5.05-6.59,10-9.88,15.05c-0.1,4.16,0.82,9.6,5.66,11.09c4.84,1.98,9.47,4.26,14.31,6.34
		c5.15,4.36,7.41,10.69,11.02,16.14c0.82,1.49,1.54,2.97,2.37,4.36"/>
	<path class="st8" d="M158.93,97.87c-3.5-2.18-7.31-4.55-11.63-4.16c-4.22-0.5-8.34,0.5-12.25,2.18c-5.15,1.58-10.3,3.47-14.73,6.53
		c-3.19,1.68-5.87,4.06-8.24,6.73c-2.47,2.38-4.84,4.95-5.87,8.22c-0.93,2.47-2.78,4.85-2.26,7.62c0.1,3.66,0.1,7.62,2.16,10.89
		c1.13,2.67,2.26,5.35,3.5,8.02"/>
	<path class="st8" d="M102.19,124.31c-5.04,0.89-11.64-1.39-12.77-6.73c-2.99-5.05-1.75-12.38-7.31-16.04
		c-6.18-1.19-10.19-7.82-8.55-13.56c1.24-7.23,8.55-10.99,14.42-14.65c9.68-5.64,20.59-9.11,29.55-15.74
		c4.74-3.96-0.21-10.1,2.06-14.75c3.5-5.05,10.3-5.35,15.55-7.62c5.46-1.98,11.84-3.27,17.2-0.5l0.82,0.3"/>
	<path class="st10" d="M157.28,64.3c0.21-4.65,1.34-9.31,5.15-12.48c2.37-2.38,4.02-5.35,4.22-8.71v-0.2"/>
</g>
</svg>
