<?xml version="1.0" encoding="utf-8"?>
<!-- Generator: Adobe Illustrator 27.3.1, SVG Export Plug-In . SVG Version: 6.00 Build 0)  -->
<svg version="1.1" id="Layer_1" xmlns="http://www.w3.org/2000/svg" xmlns:xlink="http://www.w3.org/1999/xlink" x="0px" y="0px"
	 viewBox="0 0 517.4 5631.5" style="enable-background:new 0 0 517.4 5631.5;" xml:space="preserve">
<style type="text/css">
	.st0{fill:none;stroke:#D02026;stroke-width:2;}
	.st1{fill:none;stroke:#D02028;stroke-width:2;stroke-linecap:round;stroke-linejoin:round;}
	.st2{fill:none;stroke:#D02028;stroke-width:3;stroke-linecap:round;stroke-linejoin:round;}
	.st3{fill:none;stroke:#D02028;stroke-linecap:round;stroke-linejoin:round;}
	.st4{fill:none;stroke:#D02028;stroke-width:3.75;stroke-linecap:round;stroke-linejoin:round;}
	.st5{fill:none;stroke:#D02028;stroke-width:2.5;stroke-linecap:round;stroke-linejoin:round;}
	.st6{fill:none;stroke:#D02028;stroke-width:1.25;stroke-linecap:round;stroke-linejoin:round;}
	.st7{fill:none;stroke:#D02028;stroke-width:1.25;}
	.st8{fill:none;stroke:#D02028;stroke-width:2.5;}
	.st9{fill:none;stroke:#D02028;}
</style>
<path class="st0" d="M390.6,5631.5V547.1 M414.6,5631.5V547.1"/>
<path class="st0" d="M390.6,547.1c0-12-0.5-70.5-8.5-86c-9.1-17.6-14.3-42.5-34.5-68.5 M414.6,547.1c0-10.5-0.4-78.6-10-97.5
	c-12.5-24.5-9.5-37.7-34.5-62.5"/>
<g>
	<path class="st1" d="M234.5,292.3c8.8,12.8,13.1,25.9,32.2,31.7c6.9,2.4,13.4-1.6,16.9,5c13.7,17.7,32.5,36.5,49.4,52.3
		c6.2,3.3,11,4.9,15,11.9 M370.5,387.7c-3-6.4-11.5-10-14.6-15.6c-3.7-4.1-5.9-9.1-9-13.6"/>
	<path class="st1" d="M274.2,324.6c13.5-5.5,14.4-12.3,14.4-12.3"/>
	<path class="st2" d="M464.6,250.9c7.8,15.3,4.6,34.2-5.7,47.6c-10.1,16.5-20.9,34-38.2,44.6c-11.7,6.2-24.3,11.5-37.2,15.1
		c-13,2.2-26.3,0.8-39.1-0.9c-23.2-5.4-40-23.4-53.5-41.1c-7.3-7.4-8.4-17.6-9.1-27.3c-0.6-4-1.5-7.9-3.5-11.6"/>
	<path class="st3" d="M336.6,309.7c4.3-11,13.6-20.2,25.4-23.6c16.1-4.9,30.1-15.5,47.2-16.8c14.4-2.2,29.1-3.4,43-7.8
		c4.6-1.2,9.3-2.8,13.1-5.6"/>
	<path class="st3" d="M331.4,308.3c4.4-11.3,10.8-23.5,23.2-28.2c5.8-2.5,11.6-5.4,15.6-10.2c9.6-7.1,21.5-10.7,33.1-13.3
		c14-1.2,27.1-7.2,41.2-7.6"/>
	<path class="st3" d="M368.2,278.6c9.8-5.5,19.8-12.7,31.7-11.6c14.2-1.8,26.8-10.5,41.4-10.6c6.1-0.9,12.1-1.9,18.1-3"/>
	<path class="st3" d="M326.3,308.6c3.4-10.2,5-22.5,15.5-28.7c7.3-4.1,15.9-5.6,22.5-10.9"/>
	<path class="st3" d="M321.4,309c2.9-11.8,3.7-25.8,14.7-33.7c7.6-6,16.4-10.4,24.7-15.5"/>
	<path class="st3" d="M351.6,270.1c21.9-9,43.2-21.3,67.4-23.1c1.4-0.2,2.8-0.4,4.2-0.6"/>
	<path class="st3" d="M343.6,305.8c6.4-6.8,14.5-11.7,23.3-15c10.3-4.5,21.4-7.8,31.1-13.7c17-6.6,36.2-1.9,53.1-9.1
		c4.9-1.9,9.7-4.2,14.6-6"/>
	<path class="st3" d="M341,311.4c10.4-5.9,21-11.7,32.9-14.4c13.4-5.2,24.9-15,39.9-16.1c11.9-2.7,24.3-3.1,36.4-5
		c6.1-1.8,12-4,17.5-7"/>
	<path class="st3" d="M352.7,311.1c23.6-4.1,43.2-18.7,66.1-25c14.1-2.7,29.5-0.9,42.2-8.2c1.4-0.6,2.8-1.2,4.2-1.8"/>
	<path class="st3" d="M361.9,312.8c19.1-1.8,36.1-13.4,55.8-11.9c8.9-0.3,17,3.7,25.2,5.6c2.3,0.1,4.5,0.2,6.8,0.3"/>
	<path class="st3" d="M395.8,300.5c13.5-6.7,28.1-12.6,43.6-12c8.6-0.9,17.6-1.8,25.2-6"/>
	<path class="st3" d="M413.8,299.1c14.8-4.9,30.4-6.7,45.9-7.4"/>
	<path class="st3" d="M430.7,300.2c7.2-0.5,14.5-1.5,21.7-0.4"/>
	<path class="st3" d="M330,313.5c11.5,7.5,24,15.5,38.5,15.4c13.3-0.4,26.6-1.7,39.6-4.4c9.5-1.8,19.1-1.2,28.1,2.1"/>
	<path class="st3" d="M343.9,315.7c20.9,8.2,44.6,8.3,66.1,2.3c9.5-1.9,19,0.6,28.4,1.6"/>
	<path class="st3" d="M364.9,315.3c10.8,0.2,22,1.4,32.3-2.5c15.5-2.4,31.6-2.1,47.1,0.3"/>
	<path class="st3" d="M324.8,315.3c10.2,9,22.3,17.9,36.8,18.1c9.7,2.1,20.1,3.7,29.5-0.2c11.5-2.3,23.7-2,35.2,0.2l1.2,0.3l1.3,0.3
		"/>
	<path class="st3" d="M318.5,317.1c8.5,7.5,17.8,14.5,29,17.8c11.9,4,24.4,7.1,37.2,6.8c9.1,0.2,18.1,0,27.2,0.1"/>
	<path class="st3" d="M314.5,318.5c7.5,6.9,14.9,14.6,24.9,18.4c17.7,9.4,38.3,12.2,58.3,12.2l1.4,0.1l1.4,0.1"/>
	<path class="st3" d="M308.2,319.6c9.7,8.7,19,18.3,31,24.1c15,8.3,32.9,10.4,49.8,10.6"/>
	<path class="st3" d="M302.4,321c12.2,12.7,25.4,25.8,43.2,31c8.1,2.8,16.6,4.2,24.8,6.5"/>
	<path class="st3" d="M316.7,312.5c0.6-13,1.4-27.1,10.9-37.2c2.4-2.7,5-5,7.5-7.6"/>
	<path class="st3" d="M309.7,313.9c2.1-13.6,4-28.1,12.5-39.6"/>
	<path class="st3" d="M301.6,313.2c3.9-12.6,5.5-26.8,15-36.7"/>
	<path class="st3" d="M294.6,309c2.2-12.3,9.7-22.7,16.6-32.9"/>
	<path class="st3" d="M289.1,301.2c0.9-9.7,8.2-17.2,14.3-24.4"/>
	<path class="st3" d="M283.8,290.8c3.9-5,7.8-9.9,11.7-14.9"/>
	<path class="st4" d="M71.5,255.9c-16-5.6-29.7-16-40-29.2c-7.1-7.7-16.5-14.1-18-24.9c-2.1-6.2-6.3-14.6-3.8-19.1
		c-12.7-6.2-6.7-22.1-3.8-32.2c5-8.8-5.8-17.9,0.6-26.1c9-3.4,0.9-12.1,6.5-18.3c4.1-6.4,10.7-12.9,19-13.7
		c-0.8-10.2,9.4-15.6,13.5-24c8.9-7.4,16.5-17,28.8-18.7c10.5-5.8,23-7,32.8-14.2c9.6-6.3,20.1-10.1,31.6-11.7
		c15.3-2.9,30.5-6.3,44.6-12.9c25.4-4.1,51.6-9.2,77.4-6.1C271.4,8.6,282,1.3,293,2c15.3-1.2,30.4,4.3,45.5,5.9
		c12.7,3.8,25.5,8.1,37.6,13.2c6,7.4,17.4,4.6,23.8,12c9.4,7.3,22.3,12.5,27.3,23.4c0.5,6.9,10.3,9.7,14.9,14.6
		c12.4,7.6,20.7,19.7,29.1,30.9c1.9,6.1,5.7,13.7,3.6,18.7c11.8,10,17.1,24.8,25.6,37.1c1.5,8.3,7.9,16.5,5.8,25.1
		c6.4,4.6,7,13.8,9.3,20.7c-1.2,10-0.1,20.9-7.9,28.8c-3.9,7.9-10.2,13.7-18.4,17.6c-7.8,4.6-17.9,3.8-26.3,0.7
		c-20.5-5.9-41.9-5.8-62.8-9.2c-11.4,4.6-21.5,11.9-33.9,14.4c-11.5,3.6-23.6,9.4-35.8,5.6c0.3,10.5-12.7,9.9-20.5,11.3
		c-14.9,2.9-30.3,3.5-45.1,5.2c-16.5,8.6-34.2,15.5-49.4,25.9c-6.5,7.7-16.6,12.4-26.9,9.9c-11.3-0.8-20.3-9.3-30.7-13.2
		c-8.9-5.5-20.8-2-28.9-9.4c-6.7-3.1-11.4-9.7-15-15.5c-4.1-5.4,5.5-17.5-2.5-17.5C98.2,257.4,89.1,258.7,71.5,255.9L71.5,255.9z"/>
	<path class="st5" d="M134.4,276.9c20-6.8,25.4-29.1,42-40.1c12.4-8.1,25.7-21.3,42.1-15.2c21,6.7,43.9-0.8,60.2-14
		c11.8-10.1,27.5-15.4,43.2-13.2c18.3,4.6,22.5-12.7,28.1-24.9c7.1-13.4,23.9-18.4,27.6-34.1c9.2-13.7,14.9-29.1,17.7-45.1
		c0.3-11.8,8.2-20.7,16-29.1c1.1-1.6,2.2-3.2,2.9-5"/>
	<path class="st6" d="M174,302.8c11-7.3,21.1-16,28.6-26.7c6.5-5.6,15.9-4,23.8-5.8c7.4-0.2,14.2-3.1,20.2-7
		c5.4-4.2,11.2,0.6,16.1,3.2c5.4,3.4,10.6,7,16.4,9.9"/>
	<path class="st4" d="M114.1,258.4c9.1-20.1,18.1-41,37.9-53.7c20.5-15.2,44.6-33.5,72-31.1c26.8,9.3,31.4-22.2,50.6-31.2
		c16.7-9.1,42.4,2.6,53.2-17.7c9.2-17.4,11.9-15.6,16.8-21.2"/>
	<path class="st5" d="M258.2,156.9c-5.5-19.8-13.3-32.3-8.3-52.9c1.9-9.9,13.7-30,21.8-36.2c17.7-26.3,17.6-20.2,42.2-27.2"/>
	<path class="st6" d="M388.9,112.1C382.7,91,360.3,96.6,352,76.5c-5.7-8.6-11.1-34.3-16.6-43c-11-5.1-20.1-15.2-21.3-27.3
		c-0.2-0.8-0.5-1.6-0.7-2.4"/>
	<path class="st5" d="M434,189.9c14.1-2.9,28.3-6,42.1-10c3.8,0.9,8.3,0.6,11,3.8c4.5,3.5,9,7.1,12,11.9c5.2,6.1,9.2,13.3,12.8,20.4
		l0.3,0.5l0.3,0.5"/>
	<path class="st6" d="M475,179.4c2.1-6.7,5.9-14.1,2.9-21.1c-3.6-9.4-11.4-16.4-16.1-25.1c-1.9-4.6-3.9-9.6-8.5-12.1
		c-4.4-3.1-10.1-3.5-15.3-4.1c-8.4-2.3-12.2-10.7-17.5-16.6"/>
	<path class="st6" d="M388.2,220.9c-7,1.7-13.8,4.4-21,5.2c-10.4,1.1-20.8,1.8-31.2,1.7c-3.5,0-6.6-1.9-8.8-4.3
		c-3.5-3.7-6.4-7.9-9.8-11.7c-0.8-1-1.8-2-2.6-3"/>
	<path class="st6" d="M284.2,250.9c5.9-3,13.4-4.2,17.2-10"/>
	<path class="st6" d="M368,174.3c11.6,3.1,26.6,12.4,16.2,25.1c-1.1,2.2-2.5,4.2-4.2,5.9"/>
	<path class="st6" d="M415.3,159.9c-7,2.6-14,5.4-20.8,8.5"/>
	<path class="st6" d="M468.9,247.4c13.1-7.8,22.5-22.4,19.3-37.4c-0.5-3.8-1.5-7.5-3.1-11.1"/>
	<path class="st6" d="M343.6,188.9c4.3,3.6,13.5,5.2,11.9,12.5"/>
	<path class="st6" d="M355.5,195.9c2.3-1,4.5-2,6.8-3"/>
	<path class="st6" d="M358.6,256.4l-7.3-8"/>
	<path class="st6" d="M455.9,164.3c0-9.3-0.2-32.4-15.6-26.5c-11,4.9-12.6,20.1-21.8,21.5"/>
	<path class="st6" d="M480.3,162.3c3.5-2.4,6.9-4.6,10.4-7"/>
	<path class="st7" d="M114.1,189.9c-5.8-2.4-11.9-5.8-14.2-11.9c-2.5-4.9-2.2-12-7.8-14.9c-3.9-4-11.3-4.8-12.9-10.7
		c-0.3-6.3-1.4-13.6-7.4-17.4c-4.5-3.1-7.8-8.8-14-8.5c-5.6,0.1-10.9,6-16.3,3.2c-6.3-4.1-9.2-11.1-12.6-17.2
		c-2.5-5.2-3.1-11.9,0.5-16.8c0.5-0.9,1-1.8,1.4-2.7"/>
	<path class="st7" d="M53.3,147.9c-4.1-0.7-8.3-1.3-12.5-2c-3.1,1.3-6.3,2.7-9.4,4c-1.2,3-4.1,5.7-3.3,9.3
		c0.6,6.5,1.3,13.6,5.9,18.8c4,4.3,7,9.3,9.4,14.6c1.5,2.6,2,5.6,1.1,8.5v0.9"/>
	<path class="st7" d="M183.9,66.3c2.8-2.7,5.7-5.3,8.3-8.1c2.9-5.6,5.8-11.4,9.5-16.6c1.2-2.1,2.6-4.2,4.6-5.5
		c2.7-2.1,5.5-4.2,8.1-6.3"/>
	<path class="st7" d="M78.8,202.8c12.6-1.8,25.2-3.6,37.9-4.2c2.6-0.1,5.2-0.1,7.4-1.4c2.6-1,5.1-2,7.7-3"/>
	<path class="st7" d="M294.5,57.3C312.3,71.7,308,87.8,308,87.8"/>
	<path class="st7" d="M282.7,105.7c2.1,24.4,34.5,28.2,34.5,28.2"/>
	<path class="st7" d="M214,220.4c-8.8-7.9-10.1-21.5-4.6-31.5"/>
	<path class="st7" d="M284.8,168.9c7.6,1.5,15.5,4.3,23.3,2.5c7.8,1.1,9.8-8,12.7-13.1"/>
	<path class="st7" d="M368.5,39.4c-1.2-3.3,0.9-7.2,4.3-8.2c2.7-1.8,4.5-4.4,7.1-6.2"/>
	<path class="st7" d="M286.8,8.4c7.7,1.8,12.9,15.1,1.6,15.6c-9.5,1.6-19.3,3-27.4,8.4c-6.5,4-15.9,9-14.3,17.7
		c4.5,6.2,0.7,12.3-6.6,13.7c-7.3,5.3-10,14.3-12.1,22.6c-3.8,7.2-6.7,16.2-14.1,20.7c-10.1,3.8-7.7,14.8-4.7,22.1
		c0.3,9.5-10.4,12.5-14.5,19.5c-1.6,7.9-8.1,12.1-14,16.8c-6.8,4.9-1.2,12,3.9,15.4c0.8,0.6,1.6,1.1,2.5,1.6"/>
	<path class="st8" d="M249.3,9.4c-10.9,1.8-14.9,13.2-16.8,22.3c-6.6,6.4-9.1,15.8-9.1,23.9c-5.4,5.7-16.7,10.1-13.9,19.6
		c1.5,11.8-14.5,11.4-22.8,13.1c-8.8-0.1-20.9-2.8-25.6,6.5c-4.8,9.6,0,20.4-1.2,30.6c-1.8,15-11.8,27.9-13.4,43.2
		c-1.5,10.8-0.7,21.7,0.8,32.5"/>
	<path class="st7" d="M210.9,12.3c-0.5,4.3-5.6,5.5-9.4,5.7c-10.4,1.1-19.9,5.4-30,7.9c-6.9,2.4-13.4,5.8-20,8.8
		c-3.3,5-6.6,10-9.9,15c-0.1,4.2,0.8,9.6,5.7,11.1c4.8,2,9.5,4.3,14.3,6.3c5.1,4.4,7.4,10.7,11,16.1c0.8,1.5,1.5,3,2.4,4.4"/>
	<path class="st7" d="M158.9,97.9c-3.5-2.2-7.3-4.6-11.6-4.2c-4.2-0.5-8.3,0.5-12.2,2.2c-5.1,1.6-10.3,3.5-14.7,6.5
		c-3.2,1.7-5.9,4.1-8.2,6.7c-2.5,2.4-4.8,4.9-5.9,8.2c-0.9,2.5-2.8,4.8-2.3,7.6c0.1,3.7,0.1,7.6,2.2,10.9c1.1,2.7,2.3,5.4,3.5,8"/>
	<path class="st7" d="M102.2,124.3c-5,0.9-11.6-1.4-12.8-6.7c-3-5.1-1.8-12.4-7.3-16c-6.2-1.2-10.2-7.8-8.6-13.6
		c1.2-7.2,8.6-11,14.4-14.7c9.7-5.6,20.6-9.1,29.6-15.7c4.7-4-0.2-10.1,2.1-14.8c3.5-5,10.3-5.3,15.6-7.6c5.5-2,11.8-3.3,17.2-0.5
		l0.8,0.3"/>
	<path class="st9" d="M157.3,64.3c0.2-4.6,1.3-9.3,5.1-12.5c2.4-2.4,4-5.3,4.2-8.7v-0.2"/>
</g>
</svg>
