<?xml version="1.0" encoding="UTF-8"?>
<svg id="Layer_1" data-name="Layer 1" xmlns="http://www.w3.org/2000/svg" viewBox="0 0 517.4 4956.68">
  <defs>
    <style>
      .cls-1, .cls-2, .cls-3, .cls-4, .cls-5, .cls-6, .cls-7, .cls-8, .cls-9, .cls-10, .cls-11 {
        fill: none;
      }

      .cls-1, .cls-2, .cls-3, .cls-5, .cls-6, .cls-7, .cls-8, .cls-9, .cls-11 {
        stroke: #d02028;
      }

      .cls-1, .cls-2, .cls-3, .cls-5, .cls-6, .cls-8 {
        stroke-linecap: round;
        stroke-linejoin: round;
      }

      .cls-2, .cls-10 {
        stroke-width: 3px;
      }

      .cls-3 {
        stroke-width: 3.75px;
      }

      .cls-4 {
        stroke: #d02026;
      }

      .cls-4, .cls-8 {
        stroke-width: 2px;
      }

      .cls-5, .cls-9 {
        stroke-width: 1.25px;
      }

      .cls-6, .cls-7 {
        stroke-width: 2.5px;
      }

      .cls-10 {
        stroke: #000;
      }
    </style>
  </defs>
  <path class="cls-10" d="m390.6,4956.68V547.06m24,4409.62V547.06"/>
  <path class="cls-4" d="m390.6,547.06c0-12-.5-70.5-8.5-86-9.06-17.56-14.33-42.5-34.5-68.5m67,154.5c0-10.5-.37-78.62-10-97.5-12.5-24.5-9.5-37.67-34.5-62.5"/>
  <g>
    <path class="cls-8" d="m234.51,292.33c8.75,12.77,13.08,25.94,32.23,31.68,6.9,2.38,13.39-1.58,16.89,5.05,13.69,17.72,32.54,36.54,49.42,52.28,6.18,3.27,10.95,4.88,14.95,11.88m22.5-5.5c-3-6.38-11.5-10-14.6-15.59-3.71-4.06-5.87-9.11-8.96-13.57"/>
    <path class="cls-8" d="m274.15,324.61c13.49-5.45,14.42-12.28,14.42-12.28"/>
    <path class="cls-2" d="m464.64,250.85c7.83,15.25,4.63,34.16-5.66,47.63-10.09,16.54-20.9,33.96-38.2,44.56-11.74,6.24-24.3,11.49-37.17,15.15-12.97,2.18-26.26.79-39.13-.89-23.17-5.35-39.95-23.37-53.54-41.09-7.31-7.43-8.44-17.62-9.06-27.33-.62-3.96-1.54-7.92-3.5-11.59"/>
    <path class="cls-1" d="m336.55,309.66c4.32-10.99,13.59-20.2,25.43-23.57,16.06-4.85,30.07-15.45,47.16-16.83,14.42-2.18,29.14-3.37,43.04-7.82,4.63-1.19,9.27-2.77,13.08-5.55"/>
    <path class="cls-1" d="m331.4,308.28c4.43-11.29,10.81-23.47,23.17-28.22,5.77-2.48,11.63-5.35,15.65-10.2,9.58-7.13,21.52-10.69,33.15-13.27,14-1.19,27.08-7.23,41.19-7.62"/>
    <path class="cls-1" d="m368.16,278.57c9.78-5.45,19.77-12.67,31.71-11.58,14.21-1.78,26.77-10.5,41.39-10.6,6.07-.89,12.15-1.88,18.12-2.97"/>
    <path class="cls-1" d="m326.25,308.57c3.4-10.2,5.05-22.48,15.45-28.71,7.31-4.06,15.86-5.64,22.45-10.89"/>
    <path class="cls-1" d="m321.41,308.97c2.88-11.78,3.71-25.84,14.72-33.66,7.62-6.04,16.37-10.4,24.71-15.45"/>
    <path class="cls-1" d="m351.58,270.06c21.93-9.01,43.25-21.29,67.44-23.07,1.44-.2,2.78-.4,4.22-.59"/>
    <path class="cls-1" d="m343.55,305.8c6.38-6.83,14.52-11.68,23.27-15.05,10.3-4.55,21.42-7.82,31.1-13.66,16.99-6.63,36.24-1.88,53.13-9.11,4.94-1.88,9.68-4.16,14.62-6.04"/>
    <path class="cls-1" d="m340.97,311.44c10.4-5.94,21.01-11.68,32.85-14.36,13.38-5.25,24.92-15.05,39.85-16.14,11.94-2.67,24.3-3.07,36.35-4.95,6.08-1.78,12.05-3.96,17.51-7.03"/>
    <path class="cls-1" d="m352.71,311.05c23.58-4.06,43.25-18.71,66.1-25.05,14.11-2.67,29.45-.89,42.22-8.22,1.44-.6,2.78-1.19,4.22-1.78"/>
    <path class="cls-1" d="m361.88,312.83c19.15-1.78,36.14-13.37,55.81-11.88,8.86-.3,16.99,3.66,25.23,5.64,2.27.1,4.53.2,6.8.3"/>
    <path class="cls-1" d="m395.75,300.45c13.49-6.73,28.11-12.58,43.56-11.98,8.65-.89,17.61-1.78,25.23-6.04"/>
    <path class="cls-1" d="m413.77,299.07c14.83-4.85,30.38-6.73,45.92-7.43"/>
    <path class="cls-1" d="m430.66,300.16c7.21-.49,14.52-1.49,21.73-.4"/>
    <path class="cls-1" d="m329.96,313.52c11.53,7.52,23.99,15.45,38.51,15.35,13.28-.4,26.57-1.68,39.64-4.36,9.47-1.78,19.15-1.19,28.11,2.08"/>
    <path class="cls-1" d="m343.86,315.7c20.9,8.22,44.58,8.32,66.11,2.28,9.47-1.88,18.95.6,28.42,1.58"/>
    <path class="cls-1" d="m364.86,315.31c10.81.2,22.04,1.39,32.33-2.48,15.55-2.38,31.61-2.08,47.06.3"/>
    <path class="cls-1" d="m324.81,315.31c10.19,9.01,22.34,17.92,36.76,18.12,9.68,2.08,20.08,3.66,29.45-.2,11.53-2.28,23.68-1.98,35.21.2l1.24.3,1.34.3"/>
    <path class="cls-1" d="m318.53,317.09c8.55,7.52,17.81,14.46,29.04,17.82,11.94,3.96,24.4,7.13,37.17,6.83,9.06.2,18.12,0,27.18.1"/>
    <path class="cls-1" d="m314.51,318.47c7.52,6.93,14.93,14.65,24.92,18.42,17.71,9.41,38.3,12.18,58.28,12.18l1.44.1,1.44.1"/>
    <path class="cls-1" d="m308.23,319.56c9.68,8.71,18.95,18.32,30.99,24.06,15.03,8.32,32.85,10.4,49.84,10.6"/>
    <path class="cls-1" d="m302.36,320.95c12.25,12.67,25.43,25.84,43.25,30.99,8.13,2.77,16.58,4.16,24.82,6.53"/>
    <path class="cls-1" d="m316.67,312.53c.62-12.97,1.44-27.13,10.91-37.23,2.37-2.67,5.05-5.05,7.52-7.62"/>
    <path class="cls-1" d="m309.67,313.92c2.06-13.57,4.02-28.12,12.46-39.61"/>
    <path class="cls-1" d="m301.64,313.23c3.91-12.57,5.46-26.83,15.03-36.73"/>
    <path class="cls-1" d="m294.64,308.97c2.16-12.28,9.68-22.67,16.58-32.87"/>
    <path class="cls-1" d="m289.08,301.15c.93-9.7,8.24-17.23,14.31-24.36"/>
    <path class="cls-1" d="m283.83,290.75c3.91-4.95,7.83-9.9,11.74-14.85"/>
    <path class="cls-3" d="m71.51,255.9c-15.96-5.64-29.65-16.04-40.05-29.21-7.1-7.72-16.47-14.06-18.02-24.95-2.06-6.24-6.28-14.56-3.81-19.11-12.66-6.24-6.69-22.08-3.81-32.18,5.05-8.81-5.77-17.92.62-26.14,8.96-3.37.93-12.08,6.49-18.32,4.12-6.44,10.71-12.87,19.05-13.66-.82-10.2,9.37-15.55,13.49-23.96,8.86-7.43,16.47-17.03,28.83-18.71,10.5-5.84,22.96-7.03,32.85-14.16,9.58-6.34,20.08-10.1,31.61-11.68,15.34-2.87,30.48-6.34,44.58-12.87,25.43-4.06,51.59-9.21,77.43-6.14,10.61,3.76,21.21-3.56,32.23-2.77,15.34-1.19,30.38,4.26,45.51,5.94,12.67,3.76,25.54,8.12,37.58,13.17,5.97,7.43,17.4,4.65,23.79,11.98,9.37,7.33,22.34,12.48,27.29,23.37.51,6.93,10.3,9.7,14.93,14.56,12.36,7.62,20.7,19.7,29.14,30.89,1.85,6.14,5.66,13.66,3.6,18.71,11.84,10,17.09,24.75,25.64,37.13,1.55,8.32,7.93,16.54,5.77,25.05,6.38,4.65,7,13.76,9.27,20.69-1.23,10-.1,20.89-7.93,28.81-3.91,7.92-10.19,13.66-18.43,17.62-7.83,4.56-17.92,3.76-26.26.69-20.49-5.94-41.91-5.84-62.81-9.21-11.43,4.65-21.52,11.88-33.88,14.36-11.53,3.57-23.58,9.41-35.83,5.64.31,10.5-12.66,9.9-20.49,11.29-14.93,2.87-30.27,3.46-45.1,5.25-16.48,8.61-34.18,15.55-49.42,25.94-6.49,7.72-16.58,12.38-26.87,9.9-11.33-.79-20.29-9.31-30.68-13.17-8.86-5.45-20.8-1.98-28.93-9.41-6.69-3.07-11.43-9.7-15.03-15.45-4.12-5.35,5.46-17.52-2.47-17.52-13.18-.89-22.34.4-39.85-2.38h-.03Z"/>
    <path class="cls-6" d="m134.42,276.89c19.97-6.83,25.43-29.11,42.01-40.1,12.36-8.12,25.74-21.29,42.11-15.25,21.01,6.73,43.86-.79,60.24-13.96,11.84-10.1,27.49-15.35,43.25-13.17,18.33,4.65,22.45-12.67,28.11-24.95,7.11-13.37,23.89-18.42,27.6-34.06,9.17-13.66,14.93-29.11,17.71-45.05.31-11.78,8.24-20.69,15.96-29.11,1.13-1.58,2.16-3.17,2.88-4.95"/>
    <path class="cls-5" d="m173.96,302.83c11.02-7.33,21.11-16.04,28.62-26.73,6.49-5.64,15.86-3.96,23.78-5.84,7.41-.2,14.21-3.07,20.18-7.03,5.35-4.16,11.22.6,16.06,3.17,5.35,3.37,10.6,7.03,16.37,9.9"/>
    <path class="cls-3" d="m114.14,258.37c9.06-20.1,18.12-40.99,37.89-53.67,20.49-15.25,44.59-33.47,71.97-31.09,26.77,9.31,31.4-22.18,50.56-31.19,16.68-9.11,42.42,2.57,53.23-17.72,9.16-17.43,11.94-15.55,16.78-21.19"/>
    <path class="cls-6" d="m258.19,156.88c-5.46-19.8-13.28-32.28-8.34-52.87,1.85-9.9,13.69-30,21.83-36.24,17.71-26.34,17.61-20.2,42.22-27.23"/>
    <path class="cls-5" d="m388.85,112.13c-6.18-21.09-28.52-15.55-36.86-35.65-5.66-8.61-11.12-34.26-16.58-42.97-11.02-5.15-20.08-15.25-21.31-27.33-.21-.79-.52-1.58-.72-2.38"/>
    <path class="cls-6" d="m433.95,189.85c14.11-2.87,28.32-6.04,42.11-10,3.81.89,8.34.59,11.02,3.76,4.53,3.46,8.96,7.13,12.05,11.88,5.25,6.14,9.16,13.27,12.77,20.4l.31.49.31.5"/>
    <path class="cls-5" d="m475.04,179.36c2.06-6.73,5.87-14.06,2.88-21.09-3.6-9.41-11.43-16.44-16.06-25.15-1.85-4.55-3.91-9.6-8.55-12.08-4.43-3.07-10.09-3.46-15.34-4.06-8.44-2.28-12.25-10.69-17.5-16.64"/>
    <path class="cls-5" d="m388.24,220.85c-7,1.68-13.8,4.36-21.01,5.25-10.4,1.09-20.8,1.78-31.2,1.68-3.5,0-6.59-1.88-8.75-4.26-3.5-3.66-6.38-7.92-9.78-11.68-.82-.99-1.75-1.98-2.57-2.97"/>
    <path class="cls-5" d="m284.24,250.85c5.87-2.97,13.39-4.16,17.2-10"/>
    <path class="cls-5" d="m367.95,174.31c11.64,3.07,26.57,12.38,16.17,25.05-1.13,2.18-2.47,4.16-4.22,5.94"/>
    <path class="cls-5" d="m415.32,159.85c-7,2.57-14,5.45-20.8,8.52"/>
    <path class="cls-5" d="m468.86,247.38c13.08-7.82,22.45-22.38,19.26-37.43-.52-3.76-1.55-7.53-3.09-11.09"/>
    <path class="cls-5" d="m343.55,188.86c4.32,3.57,13.49,5.25,11.94,12.48"/>
    <path class="cls-5" d="m355.49,195.89c2.26-.99,4.53-1.98,6.79-2.97"/>
    <path class="cls-5" d="m358.58,256.39l-7.31-8.02"/>
    <path class="cls-5" d="m455.89,164.31c0-9.31-.21-32.38-15.65-26.54-11.02,4.85-12.56,20.1-21.83,21.49"/>
    <path class="cls-5" d="m480.29,162.33c3.5-2.38,6.9-4.65,10.4-7.03"/>
    <path class="cls-9" d="m114.14,189.85c-5.77-2.38-11.94-5.84-14.21-11.88-2.47-4.95-2.16-11.98-7.83-14.85-3.91-3.96-11.33-4.75-12.87-10.69-.31-6.34-1.44-13.57-7.41-17.43-4.53-3.07-7.83-8.81-14-8.51-5.56.1-10.91,6.04-16.27,3.17-6.28-4.06-9.16-11.09-12.56-17.23-2.47-5.25-3.09-11.88.51-16.83.51-.89,1.03-1.78,1.44-2.67"/>
    <path class="cls-9" d="m53.29,147.87c-4.12-.69-8.34-1.29-12.46-1.98-3.09,1.29-6.28,2.67-9.37,3.96-1.24,2.97-4.12,5.74-3.29,9.31.62,6.54,1.34,13.57,5.87,18.81,4.02,4.26,7,9.31,9.37,14.55,1.54,2.57,1.96,5.64,1.13,8.51v.89"/>
    <path class="cls-9" d="m183.85,66.28c2.78-2.67,5.66-5.35,8.34-8.12,2.88-5.64,5.77-11.39,9.47-16.63,1.24-2.08,2.57-4.16,4.63-5.54,2.68-2.08,5.46-4.16,8.13-6.34"/>
    <path class="cls-9" d="m78.82,202.82c12.56-1.78,25.23-3.56,37.89-4.16,2.57-.1,5.15-.1,7.41-1.39,2.57-.99,5.15-1.98,7.72-2.97"/>
    <path class="cls-9" d="m294.54,57.27c17.71,14.46,13.49,30.5,13.49,30.5"/>
    <path class="cls-9" d="m282.7,105.69c2.06,24.36,34.49,28.22,34.49,28.22"/>
    <path class="cls-9" d="m214.02,220.35c-8.75-7.92-10.09-21.49-4.63-31.49"/>
    <path class="cls-9" d="m284.76,168.86c7.62,1.49,15.45,4.26,23.27,2.48,7.83,1.09,9.78-8.02,12.67-13.07"/>
    <path class="cls-9" d="m368.47,39.35c-1.24-3.27.93-7.23,4.32-8.22,2.68-1.78,4.53-4.36,7.11-6.24"/>
    <path class="cls-9" d="m286.81,8.36c7.72,1.78,12.87,15.15,1.65,15.64-9.47,1.58-19.26,2.97-27.39,8.42-6.49,3.96-15.86,9.01-14.31,17.72,4.53,6.24.72,12.28-6.59,13.66-7.31,5.35-9.99,14.26-12.15,22.58-3.81,7.23-6.69,16.24-14.11,20.69-10.09,3.76-7.72,14.75-4.74,22.08.31,9.51-10.4,12.48-14.52,19.51-1.65,7.92-8.13,12.08-14,16.83-6.8,4.85-1.24,11.98,3.91,15.35.82.59,1.65,1.09,2.47,1.58"/>
    <path class="cls-7" d="m249.33,9.35c-10.92,1.78-14.93,13.17-16.78,22.28-6.59,6.44-9.06,15.84-9.06,23.86-5.35,5.74-16.68,10.1-13.9,19.6,1.54,11.78-14.52,11.39-22.76,13.07-8.75-.1-20.9-2.77-25.64,6.53-4.84,9.6,0,20.4-1.24,30.6-1.75,15.05-11.84,27.92-13.39,43.17-1.54,10.79-.72,21.68.82,32.48"/>
    <path class="cls-9" d="m210.93,12.32c-.51,4.26-5.56,5.45-9.37,5.74-10.4,1.09-19.87,5.45-29.96,7.92-6.9,2.38-13.39,5.84-19.98,8.81-3.29,5.05-6.59,10-9.88,15.05-.1,4.16.82,9.6,5.66,11.09,4.84,1.98,9.47,4.26,14.31,6.34,5.15,4.36,7.41,10.69,11.02,16.14.82,1.49,1.54,2.97,2.37,4.36"/>
    <path class="cls-9" d="m158.93,97.87c-3.5-2.18-7.31-4.55-11.63-4.16-4.22-.5-8.34.5-12.25,2.18-5.15,1.58-10.3,3.47-14.73,6.53-3.19,1.68-5.87,4.06-8.24,6.73-2.47,2.38-4.84,4.95-5.87,8.22-.93,2.47-2.78,4.85-2.26,7.62.1,3.66.1,7.62,2.16,10.89,1.13,2.67,2.26,5.35,3.5,8.02"/>
    <path class="cls-9" d="m102.19,124.31c-5.04.89-11.64-1.39-12.77-6.73-2.99-5.05-1.75-12.38-7.31-16.04-6.18-1.19-10.19-7.82-8.55-13.56,1.24-7.23,8.55-10.99,14.42-14.65,9.68-5.64,20.59-9.11,29.55-15.74,4.74-3.96-.21-10.1,2.06-14.75,3.5-5.05,10.3-5.35,15.55-7.62,5.46-1.98,11.84-3.27,17.2-.5l.82.3"/>
    <path class="cls-11" d="m157.28,64.3c.21-4.65,1.34-9.31,5.15-12.48,2.37-2.38,4.02-5.35,4.22-8.71v-.2"/>
  </g>
</svg>