<?xml version="1.0" encoding="UTF-8"?>
<svg id="Layer_2" data-name="Layer 2" xmlns="http://www.w3.org/2000/svg" viewBox="0 0 1270 1003.14">
  <defs>
    <style>
      .cls-1, .cls-2, .cls-3 {
        fill: none;
      }

      .cls-4 {
        fill: #010101;
      }

      .cls-5 {
        fill: #fff;
      }

      .cls-6 {
        fill: #434343;
      }

      .cls-7 {
        fill: #80bc57;
        stroke: #8f8f8f;
      }

      .cls-7, .cls-2, .cls-3 {
        stroke-miterlimit: 10;
      }

      .cls-2 {
        stroke: #221f20;
      }

      .cls-2, .cls-3 {
        stroke-width: 2px;
      }

      .cls-3 {
        stroke: #000;
      }
    </style>
  </defs>
  <polyline class="cls-3" points="91.82 884.13 212.03 521.82 1055.07 521.82 1175.27 884.13"/>
  <line class="cls-3" x1="1175.27" y1="884.13" x2="91.82" y2="884.13"/>
  <polyline class="cls-3" points="91.82 884.13 91.82 1002.14 1175.27 1002.14 1175.27 884.13"/>
  <g>
    <path class="cls-4" d="m1014.86,570.51c-2.3-3.98-5.36-6.49-8.7-8.59-3.93-2.47-8.23-3.73-13-3.48-7.82.41-13.07,4.61-16.95,11-.3.49-.48,1.06-.76,1.57-1.45,2.69-1.91,5,.23,7.94,3.54,4.85,5.27,10.62,6.69,16.48,2.91,11.94,2.99,24.05,2.64,36.21-.02.58.03,1.19-.13,1.74-1.53,5.24-.3,10.4.65,15.5,3.12,16.72-.06,32.15-9,46.5-.12.2-.15.46-.34,1.07.9.16,1.71.37,2.53.44,6.2.54,12.51.56,18.58,1.74,5.47,1.06,10.67,3.44,16.02,5.16,2.44.78,4.93,1.4,7.42,2.05,5.89,1.54,11.73,3.11,15.45,8.61,3.6,5.32,5.13,11.33,5.73,17.56.73,7.6-.06,15.15-2.34,22.43-3.39,10.82-7.06,21.55-10.52,32.35-3.52,11.01-8.01,21.59-13.75,31.63-3.54,6.19-8.73,10.25-15.54,12.37-11.7,3.64-23.57,3.68-35.51,1.75-4.81-.78-9.59-1.87-14.31-3.12-6.65-1.76-10.42-6.92-12.59-12.83-2.68-7.27-4.32-14.91-6.51-22.37-2.23-7.63-4.65-15.2-6.85-22.83-1.88-6.53-3.63-13.09-5.3-19.68-1.97-7.77-3.05-15.66-2.63-23.7.36-6.92,2.2-13.29,7.46-18.16,4.21-3.9,9.47-5.73,14.94-6.91,7.69-1.66,15.44-3.04,23.11-4.78.94-.21,1.91-1.71,2.28-2.81,2.49-7.36,4.66-14.82,7.24-22.14,3.67-10.41,7.54-20.76,8.83-31.8.26-2.21-.41-4.61-1.04-6.81-1.66-5.82-3.68-11.53-5.29-17.36-2.95-10.66-5.7-21.37-5.07-32.6.02-.33.03-.67.04-1,.2-8.12-.69-9.67-8.12-12.77-5.12-2.13-10.5-3.07-16.07-2.44-1.02.12-2,.54-3.36.93,2.2,1.48,4.14,2.52,5.77,3.91,9.25,7.88,14.29,17.68,12.57,30.05-.82,5.89-3.65,11.16-7.1,16-.43.6-1.77.95-2.53.78-.46-.11-.9-1.46-.9-2.25.01-2.32.32-4.65.38-6.97.02-.93-.29-1.88-.44-2.81-.3-.11-.61-.21-.91-.32-.62,1.09-1.62,2.13-1.79,3.29-.32,2.12-.21,4.31-.18,6.47.21,13.07-5.93,22.65-16.52,29.65-2.17,1.43-4.72,2.34-7.2,3.22-.83.29-2.45.04-2.84-.54-.47-.69-.25-2.11.11-3.05,1.52-4.01,3.31-7.91,4.73-11.95.38-1.08.13-3.36-.47-3.62-1.95-.86-1.91,1.45-2.67,2.45-.32.42-.39,1.1-.41,1.67-.32,8.39-4.25,15.23-9.37,21.48-5.52,6.74-12.77,10.74-21.25,12.47-1.07.22-2.3-.36-3.46-.57.29-1.12.28-2.46.92-3.32,3.11-4.19,6.45-8.22,9.6-12.38.89-1.17,1.51-2.57,2.09-3.94.22-.52.22-1.45-.1-1.81-.3-.33-1.37-.41-1.75-.13-1.85,1.38-3.73,2.76-5.31,4.42-5.03,5.29-9.67,10.99-14.96,16-5.18,4.9-11.18,8.82-17.72,11.83-2.05.94-3.32.58-3.61-1.61-.78-5.9-1.96-11.83-1.94-17.75.03-7.81,1.81-15.41,4.83-22.72,3.12-7.56,8.3-13.04,15.27-17.09,1.76-1.03,3.29-2.49,4.81-3.88.46-.42.91-1.51.69-1.86-.39-.6-1.35-1.26-1.99-1.19-1.62.18-3.46.38-4.74,1.25-7.16,4.84-14.05,10.04-19.1,17.25-.66.95-1.17,2.06-1.99,2.83-.49.46-1.53.69-2.19.51-.43-.12-.94-1.19-.87-1.76.53-3.94.8-7.97,1.93-11.75,2.8-9.41,8.37-17.07,16.13-23.06,3.56-2.74,7.44-4.93,12.02-5.62,1.21-.18,2.45-.6,3.51-1.21.84-.48,1.44-1.4,2.14-2.13-.86-.79-1.67-2.16-2.6-2.24-2.36-.22-4.85-.19-7.16.32-6.45,1.44-12.28,4.38-17.77,8.05-.89.6-2.24.52-3.37.75-.05-1.1-.5-2.4-.07-3.27,3.2-6.54,7.19-12.5,13.22-16.85,7.3-5.26,15.13-6.77,23.74-3.63,1.52.56,3.24.56,4.87.82.16-.32.32-.64.48-.96-.66-.71-1.19-1.65-1.99-2.1-6.33-3.54-13.23-5.18-20.38-5.94-.74-.08-1.56.12-2.23-.14-1.04-.4-1.98-1.06-2.96-1.62.79-.83,1.43-2.09,2.39-2.42,3.52-1.21,7.13-2.18,10.74-3.09,1.69-.42,1.92-.94,1.16-2.56-5.14-10.91-6.59-22.26-4.37-34.2,2.46-13.24,9.39-23.71,19.04-32.69,1.38-1.29,2.67-2.8,3.55-4.45.55-1.02.26-2.5.35-3.77-1.16,0-2.42-.32-3.46.02-5.14,1.72-9.07,5.28-12.44,9.28-4.91,5.84-9.38,12.04-14.1,18.04-1.17,1.48-2.48,2.93-3.97,4.06-2.61,1.98-5.46.66-5.23-2.64.26-3.67.81-7.53,2.24-10.87,4.33-10.09,10.44-19.1,18.79-26.31,2.82-2.43,6.48-3.87,9.68-5.88,2-1.25,3.97-2.6,5.75-4.14.59-.51,1.04-2.26.72-2.56-.95-.9-2.34-1.93-3.51-1.87-1.84.09-3.73.83-5.42,1.65-6.4,3.09-11.99,7.37-17.25,12.11-1.08.97-2.07,3.08-3.84,1.89-1.86-1.26-.12-2.84.49-4.15,4.55-9.76,10.35-18.55,19.65-24.5,5.14-3.29,10.75-5.1,16.86-5.31,2.66-.09,5.33-.09,7.98-.28.67-.05,1.29-.69,1.93-1.06-.51-.58-.93-1.54-1.55-1.69-4.64-1.17-9.28-2.47-14-3.15-3.68-.53-7.48-.13-11.21-.32-.91-.05-1.78-.81-2.67-1.25.57-.69,1-1.65,1.72-2.02,9.88-5.04,20.26-6.73,31.18-4.57,3.25.64,6.6,1.04,9.69,2.15,5.35,1.93,10.14,4.79,12.99,10.11.32.59,1.84,1.12,2.48.86,5.83-2.37,11.44-5.34,17.4-7.3,7.14-2.35,14.53-3.14,22.08-1.22,5.22,1.33,9.77,3.52,13.39,7.55,3.59,3.99,5.26,8.86,5.85,14.02.92,8.03-.24,15.9-2.47,23.65-1.76,6.12-3.21,12.34-5.16,18.4-1.9,5.9-4.22,11.66-6.42,17.46-2.28,6.03-4.72,12.01-6.92,18.07-2.35,6.45-4.86,12.88-6.63,19.49-1.66,6.23-2.44,12.69-3.58,19.06-.05.29.14.61.33,1.35.96-1.14,1.78-2,2.48-2.95,6.69-9.01,17.67-12.02,28.71-8.03,6.28,2.27,10.79,6.67,14.76,11.74,1.29,1.66,2.01,1.96,4.12.76,5.08-2.88,10.4-5.45,15.84-7.56,7.58-2.93,15.55-3.86,23.5-1.72,4.27,1.15,8.31,3.12,12.41,4.83.42.18.87,1.47.78,1.54-.65.49-1.43,1.08-2.19,1.11-2.97.1-6.02-.41-8.91.1-2.96.52-5.82,1.81-8.57,3.09-1.05.49-1.95,1.8-2.41,2.94-.58,1.43-.14,2.92,1.63,3.31,2.01.44,4.06.89,6.1.94,11.88.27,20.97,5.52,27.47,15.32,2.5,3.78,4.15,7.97,3.83,12.64-.07,1.02-.77,1.99-1.18,2.99-.94-.54-2.19-.85-2.78-1.65-2.95-3.98-6.6-7.15-11.25-8.67-2.97-.97-6.28-1.01-9.46-1.17-.77-.04-2.2,1.06-2.26,1.73-.08,1.05.47,2.46,1.25,3.19,1.62,1.52,3.47,2.85,5.38,3.98,8.6,5.11,14.88,12.23,18.19,21.66,2.43,6.94,2.62,14.2,1.29,21.44-.15.8-.9,1.49-1.37,2.24-.76-.56-1.84-.97-2.22-1.72-1.62-3.16-2.51-6.84-4.64-9.57-3.22-4.12-7.18-7.69-10.99-11.31-.63-.6-2.5-.78-3.12-.29-.67.53-.98,2.21-.68,3.14,1,3.07,2.08,6.16,3.6,8.99,5.11,9.47,5.29,18.99.82,28.69-.27.59-.61,1.18-1.05,1.67-1.35,1.52-2.6,1.23-3.17-.74-.23-.79-.16-1.66-.32-2.47-.51-2.55-1.07-5.1-1.6-7.65l-.95.03c-.14,1.13-.35,2.26-.42,3.4-.42,7.5-1.48,14.87-4.44,21.85-.38.91-.9,1.77-1.44,2.6-.98,1.48-2.3,3.27-4.09,2.43-1.51-.71-3-2.44-3.54-4.04-1.31-3.83-1.7-7.98-3.15-11.75-1-2.61-2.86-5.03-4.81-7.09-2.02-2.14-4.94-1.18-5.86,1.63-1.13,3.48-.04,6.54,1.96,9.38.38.54,1.05.98,1.19,1.56.2.79.31,1.86-.08,2.47-.25.39-1.61.48-2.21.18-5.31-2.67-9.09-6.72-11.26-12.36-2.73-7.09-1.09-13.9.87-20.73.83-2.9,1.26-5.77.5-8.75-2.32.44-3.96,2.58-4.2,5.77-.21,2.73.02,5.49-.12,8.23-.04.86-.46,2.19-1.04,2.41-.68.25-1.91-.26-2.57-.83-4.81-4.1-7.57-9.43-8.42-15.61-.71-5.17-1.08-10.39-1.32-15.6-.1-2.11.54-4.25.82-6.38.11-.87.17-1.74.27-2.82-2.4.1-3.77,1.32-4.2,3.15-.58,2.47-.83,5.03-1.01,7.56-.12,1.73.46,3.75-1.83,4.35-2.15.56-3.65-.69-4.65-2.52-3.77-6.92-3.54-13.99-.73-21.14,1.02-2.6,2.03-5.2,3.05-7.81-.15-.21-.3-.42-.44-.63-1.01.28-2.07.47-3.04.87-1.79.74-3.03.27-3.34-1.63-.59-3.6-1.34-7.22-1.4-10.85-.15-9.8,7.16-16.89,17-16.88,1.03,0,2.05-.11,3.54-.2v-.02Zm10.85,141.05c.66,1.03.92,1.52,1.25,1.95,6.71,8.74,5.78,17.72-.92,25.9-6.47,7.91-15.28,11.85-24.78,14.23-9.12,2.29-18.45,3.2-27.92,2.46-11.89-.93-23.32-3.41-33.63-9.61-9.48-5.7-11.83-15.62-5.78-24.78,4.32-6.53,10.66-10.32,17.83-12.87,2.88-1.03,5.85-1.82,8.81-2.6,2.31-.61,2.1-2.39,1.89-3.99-.24-1.82-1.81-1.17-2.81-.95-8.72,1.92-17.56,3.46-26.1,6.01-9.55,2.86-13.84,9.6-14.48,19.25-.59,8.94.24,17.77,2.67,26.42,2.21,7.89,4.36,15.81,6.61,23.69,1.78,6.21,3.66,12.39,5.51,18.57,2.06,6.88,3.94,13.83,6.3,20.6,1.76,5.05,5.12,9.09,10.47,10.55,5.1,1.39,10.33,2.35,15.55,3.21,11.06,1.82,22.05,1.41,32.77-2.06,3.89-1.26,7.67-3.02,10.15-6.43,5.05-6.93,8.98-14.52,12.04-22.51,2.81-7.35,5.23-14.84,7.97-22.22,4.08-10.98,7.85-22.02,9.23-33.75,1.1-9.33.27-18.26-5.17-26.25-1.62-2.38-3.58-4.52-7.48-4.84l.02.02Zm-62.08-278.63c1.39.87,2.22,1.35,3.01,1.89,2.39,1.6,5.07,2.91,7.1,4.9,5.19,5.09,8.53,11.22,8.52,18.72,0,5.76-3.49,8.97-9.2,8.5-1.82-.15-3.61-.81-5.73-1.32.17.82.31,1.42.43,2.03.72,3.66,1.73,7.29,2.1,10.99.58,5.76-1.26,11.16-3.42,16.4-1.52,3.68-3.11,7.45-6.45,9.85-1.15.83-3.15,1.06-4.56.73-.86-.2-1.92-2.01-1.9-3.08.05-3.46.53-6.91.88-10.36.18-1.76.44-3.51.67-5.27-.3-.07-.59-.14-.89-.22-.68.8-1.42,1.56-2.05,2.41-3.31,4.43-4.46,9.75-6.02,14.89-1.29,4.24-2.85,8.35-6.18,11.44-5.24,4.86-12.17,6.58-18.39,9.62-.42.21-1.56-.47-1.98-1.03-.25-.34.09-1.38.47-1.86.88-1.09,2-1.98,2.95-3.01,3.76-4.09,7.78-8.05,8.61-13.93.12-.85-.31-1.77-.48-2.67-.87.26-1.96.27-2.58.82-1.79,1.59-3.48,3.31-5.05,5.12-10.03,11.49-20,23.04-30.03,34.53-2.73,3.12-5.76,5.98-6.87,10.2-.7,2.66-.11,3.53,2.54,3.78,3.78.36,7.57.77,11.33,1.33,6.87,1.03,12.97,3.95,18.51,8.04,2.31,1.71,4.46,3.65,6.62,5.44,13.79-9.67,27.85-9.25,42.25-1.68.25-.81.51-1.26.51-1.72.01-9.07,1.99-17.81,4.79-26.35,2.06-6.29,4.36-12.5,6.69-18.7,2.68-7.13,5.68-14.14,8.22-21.32,2.41-6.79,4.44-13.71,6.58-20.59,2.45-7.86,4.58-15.84,4.92-24.08.32-8.08-.9-15.92-8.04-21.2-8.32-6.15-17.56-6.05-27.87-3.23h-.01Zm-80.62,116c.32,0,.65.01.97.02,1.96-2.34,3.88-4.71,5.89-7,6.29-7.17,12.6-14.33,18.93-21.47,5.77-6.51,11.54-13.03,17.4-19.46.91-1,2.24-1.74,3.51-2.29,2.88-1.26,6.03,1.29,5.5,5.12-.46,3.34-2.12,6.52-3.37,9.73-.47,1.2-1.27,2.28-2.16,3.84,8.19-3,11.84-8.74,13.58-16.28.87-3.75,2.31-7.44,4.04-10.89,1.41-2.82,3.64-5.23,5.63-7.99,0,0-.16-.3-.33-.57-3.01-4.71-4.55-9.74-3.48-15.39.48-2.53,2.83-5.02,5.2-5.43,2.35-.4,4.06.53,5.15,2.58,1.21,2.28,1.4,4.66.96,7.25-.85,5.06-1.39,10.17-2.07,15.26-.46,3.45-.98,6.89-1.37,10.34-.22,1.94-.22,3.9-.33,5.85l.89.18c.72-.77,1.55-1.46,2.14-2.32,4.63-6.72,7.11-14.11,6.08-22.31-.54-4.25-1.63-8.44-2.74-12.59-.88-3.29.05-4.8,3.39-4.22,2.08.36,4.05,1.38,6.05,2.17,2.28.9,4.54.22,5.3-2.09.57-1.74.87-3.76.57-5.54-.37-2.25-1.27-4.47-2.29-6.54-3.03-6.1-7.67-10.42-14.5-11.84-3.78-.78-7.4-.39-10.5,2.39-5.28,4.73-8.66,10.85-12.57,16.6-4.23,6.24-8.59,12.4-12.98,18.53-1.1,1.54-2.64,2.72-4.67,1.57-2.12-1.21-1.9-3.19-1.17-5.07,4.29-11.01,9.99-21.12,18.76-29.26,2.17-2.01,2.62-3.69.49-5.74-2.69-2.59-5.71-5.23-9.09-6.62-8.44-3.48-17.43-4.04-26.47-3.02-2.1.24-4.13,1.12-6.19,1.71.51.69.88.85,1.27.9,4.1.59,8.24.97,12.28,1.83,2.29.49,4.62,1.45,6.58,2.73,3.47,2.26,3.12,5.78-.71,7.11-2.06.71-4.42.5-6.64.79-4.26.56-8.7.61-12.75,1.88-8.68,2.72-14.78,8.94-19.73,16.35-.41.62-.55,1.42-.81,2.13.18.16.37.32.55.48,1.27-.79,2.5-1.66,3.82-2.34,4.03-2.07,8.02-4.26,12.19-6.03,2.77-1.17,6.4.24,7.76,2.41,1.73,2.76,1.56,5.15-1.25,7.77-1.82,1.69-4.21,2.79-6.37,4.09-2.95,1.78-6.52,2.95-8.8,5.36-4.76,5.03-9.24,10.44-13.09,16.2-2.72,4.06-4.32,8.91-6.19,13.49-.55,1.34-.29,3.01-.41,4.53.3.07.6.14.91.21.71-.77,1.48-1.49,2.12-2.31,5.53-7.04,10.87-14.24,16.62-21.1,3.33-3.98,7.74-6.75,12.79-8.3,3.3-1.01,6.61.18,7.25,3.25.37,1.77-.27,4.22-1.34,5.73-2.14,3.01-4.81,5.68-7.42,8.33-11.5,11.68-16.77,25.72-15.54,42.02.34,4.46,1.79,8.84,2.72,13.26l.04.02Zm70.03,59.02c.79-.88,1.74-1.44,1.81-2.09.35-3.6.81-7.25.6-10.84-.33-5.8-3.52-10.51-7-14.86-3.98-4.97-8.95-8.33-15.79-6.59-5.59,1.42-9.44,5.22-11.99,10.16-4.21,8.17-7.79,16.68-12.21,24.72-2.44,4.44-5.88,8.37-9.19,12.25-1.48,1.73-3.95,2.38-6.16,1.01-2.09-1.31-2.01-3.58-1.43-5.61.66-2.29,1.36-4.72,2.68-6.64,4.83-7.03,9.69-14.07,15.02-20.73,3.82-4.78,8.34-9.01,12.66-13.37,1.64-1.66,1.59-2.93-.2-4.26-1.6-1.19-3.18-2.42-4.85-3.49-5.16-3.32-10.8-5.55-16.89-6.22-5.33-.59-10.72-.77-16.08-.97-.91-.03-1.85.74-2.77,1.13.07.24.14.47.21.71,2.51.77,5.05,1.44,7.52,2.33,3.67,1.32,7.39,2.7,9.74,6.08,1.86,2.68.41,5.86-2.82,5.92-2.6.05-5.3-.3-7.81-.99-4.31-1.19-8.63-1.41-12.78-.04-6.18,2.04-10.85,6.28-14.51,11.61-.26.38-.18.99-.29,1.65.63-.06.98-.02,1.26-.13.62-.24,1.2-.56,1.8-.86,6.08-2.98,12.39-4.78,19.25-3.72,2.66.41,4.52,2.34,4.76,4.98.28,2.98-.83,4.67-3.7,5.66-3.43,1.19-7.01,2.08-10.26,3.64-6.77,3.26-11.8,8.56-15.51,14.99-1.92,3.34-3.2,7.04-4.78,10.58.28.17.56.35.83.52.73-.48,1.52-.91,2.19-1.46,3.91-3.21,7.75-6.5,11.7-9.66,2.83-2.26,5.92-3.91,9.76-3.74,2.09.09,3.95.66,4.81,2.49.94,2.01,1.01,4.35-.75,6.06-1.88,1.83-3.87,3.63-6.07,5.02-5.15,3.26-9.63,7.13-12.39,12.64-5.48,10.95-6.94,22.62-5.7,34.68.17,1.62.92,3.18,1.44,4.93,6.32-2.94,11.6-6.42,16.05-10.92,4.83-4.89,9.13-10.3,13.93-15.22,2.26-2.32,4.99-4.33,7.82-5.91,1.22-.68,3.82-.53,4.75.35,1.05.98,1.49,3.33,1.17,4.88-.46,2.28-1.62,4.5-2.85,6.53-1.69,2.78-3.72,5.36-6.04,8.65,1.45-.23,2.27-.18,2.93-.49,9.88-4.6,15.83-12.67,19.25-22.67,1.83-5.38,3-10.99,4.29-16.54.28-1.21.06-2.65-.31-3.86-.48-1.57-1.51-2.97-2.01-4.54-1.26-3.95-1.25-7.88.95-11.55,1.52-2.53,4.69-3.04,6.43-.7,1.17,1.57,1.93,3.92,1.82,5.86-.15,2.67-1.22,5.31-2.02,7.92-.81,2.63-.84,4.97.58,7.57,2.55,4.67,3.46,9.65.89,14.77-.73,1.46-1.12,3.08-1.66,4.63l.63.45c.84-.43,1.75-.76,2.5-1.31,9.53-6.95,14.69-15.96,13.59-28.13-.22-2.38.39-4.97,1.18-7.26.85-2.46,2.93-3.95,5.63-4.27,2.75-.33,3.44,1.78,4.37,4.27h.02Zm134.54,32.91l.98-.42c-.58-3.67-.75-7.48-1.83-11-2.71-8.8-8.59-15.15-16.34-19.97-2.79-1.74-5.56-3.7-7.78-6.08-2.98-3.19-1.65-7.33,2.31-9.09,4.59-2.03,8.89-.42,13.04,1.1,3.16,1.16,5.97,3.26,9.18,5.07-.03-.59.13-1.28-.11-1.78-3.89-8.06-9.66-14.13-18.62-16.26-3.84-.91-7.88-.9-11.82-1.45-6.12-.86-8.73-4.13-6.63-9.17.7-1.68,2.41-3.23,4.05-4.15,2.81-1.6,5.93-2.66,8.96-3.96-.15-.13-.3-.38-.5-.42-5.22-1.24-10.49-2.1-15.79-.77-4.33,1.09-8.65,2.27-12.84,3.78-3.25,1.18-6.35,2.82-9.39,4.48-2.98,1.62-2.88,2.49-.84,5.19,2.44,3.23,5.08,6.47,6.71,10.12,3.22,7.25,5.89,14.75,8.54,22.23.46,1.3.23,3.85-.62,4.41-1.94,1.29-3.22-.63-4.29-2.16-.19-.27-.39-.55-.51-.85-2.06-5.06-4.06-10.14-6.16-15.18s-4.2-10.09-6.47-15.05c-.55-1.21-1.56-2.45-2.69-3.11-4.24-2.47-8.76-2.29-13.16-.52-4.02,1.62-6.41,4.73-6.68,9.12-.16,2.63,0,5.3.23,7.93.27,3.18.37,3.17,3.38,2.18,3.29-1.08,5.1.36,4.54,3.74-.2,1.21-.7,2.36-1.07,3.54-1.5,4.81-3.37,9.55-4.36,14.46-.5,2.5.59,5.32.96,8l.88-.08c.19-1.29.36-2.57.56-3.86.78-5.03,4.31-8.59,8.34-8.4,2.43.11,3.52,1.11,3.53,3.55,0,1.82-.09,3.67-.4,5.46-1.61,9.11-.36,17.85,3.26,26.29.33.76,1.25,1.27,1.48,1.5,1.82-3.51,2.91-7.06,5.16-9.59,3.23-3.65,4.86-7.41,4.16-12.2-.06-.41,0-.83,0-1.25.14-5.69,4.12-8.84,9.66-7.59,2.29.52,3.55,1.97,3.74,4.36.27,3.34-1.83,5.49-4.01,7.36-3.68,3.16-5.47,6.93-5.19,11.8.25,4.38-.88,8.49-2.42,12.61-1.02,2.73-1.58,5.84-1.47,8.74.12,3.35.96,6.77,3.53,9.68.74-2.26,1.22-4.26,2.03-6.12,1.43-3.29,4.74-4.91,7.91-3.49,2.09.94,4.1,2.51,5.56,4.28,3.82,4.63,5.02,10.35,5.93,16.14.12.79.72,1.5,1.1,2.25.67-.64,1.58-1.17,1.97-1.95,3.04-6.08,3.44-12.78,4.11-19.35.28-2.7-.73-5.52-.92-8.3-.07-1.04.27-2.85.82-3.02,1.1-.34,2.84-.21,3.65.5,1.71,1.48,2.99,3.47,4.47,5.23.56.67,1.17,1.29,1.76,1.94.8-1.47.98-2.59,1.09-3.73.58-5.53-1.61-10.39-3.61-15.33-1.54-3.8-4.06-7.27-4.08-11.61-.03-4.75,4.15-7.65,8.03-4.97,4.3,2.97,8,6.84,11.79,10.5,1.34,1.3,2.17,3.13,3.24,4.71l-.04-.02Zm-111.83,66.55h-5.99c-3.08.11-4.54,1.26-4.08,4.3.83,5.38,1.5,10.96,3.53,15.94,3.39,8.32,7.8,16.22,11.79,24.29.74,1.5,1.86,2.23,3.61,1.94,5.55-.93,11.15-1.61,16.66-2.76,8.62-1.81,16.25-5.65,22.1-12.42,3.25-3.75,5.9-7.9,5.38-13.17-.12-1.17-.99-2.66-1.98-3.29-6.32-4.06-13.15-6.97-20.32-9.28-10.02-3.22-20.2-5.24-30.72-5.57l.02.02Zm1.72,46.35c-2.31-4.19-4.44-7.91-6.42-11.69-4.85-9.24-8.65-18.84-8.84-29.46-.07-4.05-.89-4.39-4.75-3.41-6.55,1.66-12.71,4.3-17.75,8.97-3.34,3.09-5.93,6.75-6.9,11.28-1.35,6.29,2.82,12.04,8.58,15.46,8.92,5.29,18.84,7.52,28.99,8.81,2.22.28,4.51.04,7.1.04h-.01Zm4.76-99.01c-.33.03-.66.06-.99.08-.14.38-.28.75-.41,1.13-2.24,6.72-4.46,13.45-6.73,20.16-2.14,6.33-4.34,12.63-6.48,18.96-.5,1.49.32,2.55,1.7,2.08,1.41-.48,2.96-1.47,3.76-2.69,6.57-9.94,9.51-21.03,9.79-32.86.06-2.28-.42-4.58-.65-6.87h.01Zm45.18,66.37c-.16-1.42-.02-2.3-.36-2.91-2.32-4.17-5.53-8.17-10.03-9.15-7.97-1.74-16.21-2.22-24.35-3.16-.77-.09-1.59.25-2.39.39,13.15,2.59,25.3,7.17,37.12,14.83h.01Zm-116.55-127.1c-6.43,6.46-11.71,13.71-15.44,22.03-.3.66-.04,1.58-.04,3.07,8.4-6.96,12.08-15.94,15.48-25.1Zm62.7-9.89c-.21,10.4,3.53,19.95,6.53,29.66.85-10.54-1.51-20.39-6.53-29.66Zm-15.34-114.34c-.27-1.29-.26-2.55-.8-3.49-.51-.9-1.59-2.04-2.43-2.05-.8,0-2.06,1.17-2.35,2.07-1.25,3.87-.88,7.71,1.33,11.19.72,1.12,1.93,1.18,2.38-.36.72-2.45,1.26-4.95,1.86-7.36h.01Zm73.37,162.59c3.99-1.58,7.32-5.32,7.81-7.63.47-2.24-.32-3.64-2.4-3.73-2.08-.09-4.34.57-4.81,2.7-.62,2.8-.43,5.77-.6,8.66Zm-106.11-164.33c5.1-7,10.51-13.76,14.17-21.63-6.72,5.95-11.16,13.35-14.17,21.63Zm48.33,231.99c-.01.33-.02.66-.03.99,8.93.54,17.86,1.08,26.8,1.62,0-.21.02-.43.03-.64-8.84-2.32-17.77-2.95-26.8-1.97h0Zm-50.8-83.18c.77-3.39,1.58-6.09,1.88-8.84.1-.89-1.15-1.93-1.78-2.9-.84.76-2.29,1.44-2.4,2.3-.29,2.26-.13,4.6.16,6.88.1.76,1.12,1.39,2.14,2.57h0Z"/>
    <path class="cls-1" d="m1025.71,711.56c3.9.31,5.86,2.46,7.48,4.84,5.45,7.99,6.27,16.92,5.17,26.25-1.38,11.73-5.15,22.77-9.23,33.75-2.74,7.38-5.16,14.87-7.97,22.22-3.06,7.99-6.99,15.58-12.04,22.51-2.49,3.41-6.27,5.17-10.15,6.43-10.73,3.47-21.71,3.88-32.77,2.06-5.22-.86-10.46-1.81-15.55-3.21-5.35-1.46-8.72-5.5-10.47-10.55-2.36-6.78-4.23-13.72-6.3-20.6-1.86-6.19-3.74-12.36-5.51-18.57-2.25-7.88-4.4-15.8-6.61-23.69-2.42-8.65-3.25-17.48-2.67-26.42.64-9.66,4.93-16.4,14.48-19.25,8.54-2.55,17.38-4.1,26.1-6.01,1-.22,2.57-.86,2.81.95.21,1.59.42,3.38-1.89,3.99-2.96.78-5.93,1.58-8.81,2.6-7.17,2.55-13.51,6.34-17.83,12.87-6.06,9.15-3.7,19.07,5.78,24.78,10.32,6.21,21.74,8.68,33.63,9.61,9.47.74,18.8-.18,27.92-2.46,9.5-2.38,18.31-6.32,24.78-14.23,6.7-8.18,7.63-17.17.92-25.9-.33-.43-.59-.92-1.25-1.95l-.02-.02Z"/>
    <path class="cls-1" d="m963.63,432.93c10.31-2.82,19.55-2.92,27.87,3.23,7.14,5.27,8.36,13.12,8.04,21.2-.33,8.24-2.47,16.22-4.92,24.08-2.14,6.88-4.17,13.8-6.58,20.59-2.54,7.18-5.54,14.19-8.22,21.32-2.33,6.2-4.63,12.41-6.69,18.7-2.79,8.55-4.77,17.28-4.79,26.35,0,.46-.26.92-.51,1.72-14.4-7.56-28.46-7.99-42.25,1.68-2.16-1.79-4.31-3.73-6.62-5.44-5.54-4.09-11.64-7.01-18.51-8.04-3.76-.56-7.54-.97-11.33-1.33-2.65-.25-3.24-1.12-2.54-3.78,1.11-4.22,4.14-7.08,6.87-10.2,10.03-11.49,20-23.04,30.03-34.53,1.58-1.81,3.26-3.53,5.05-5.12.62-.55,1.7-.56,2.58-.82.17.89.6,1.82.48,2.67-.83,5.88-4.85,9.83-8.61,13.93-.95,1.04-2.07,1.93-2.95,3.01-.39.47-.72,1.52-.47,1.86.41.56,1.55,1.24,1.98,1.03,6.22-3.04,13.15-4.75,18.39-9.62,3.34-3.1,4.9-7.21,6.18-11.44,1.56-5.14,2.71-10.46,6.02-14.89.63-.84,1.36-1.61,2.05-2.41.3.07.59.14.89.22-.22,1.76-.49,3.51-.67,5.27-.35,3.45-.83,6.91-.88,10.36-.01,1.07,1.04,2.88,1.9,3.08,1.41.33,3.41.1,4.56-.73,3.34-2.4,4.93-6.16,6.45-9.85,2.16-5.24,4-10.64,3.42-16.4-.37-3.7-1.38-7.33-2.1-10.99-.12-.61-.25-1.21-.43-2.03,2.12.5,3.9,1.17,5.73,1.32,5.71.47,9.2-2.74,9.2-8.5,0-7.49-3.33-13.62-8.52-18.72-2.02-1.98-4.7-3.29-7.1-4.9-.79-.53-1.62-1.02-3.01-1.89h.01Z"/>
    <path class="cls-7" d="m883.01,548.93c-.94-4.42-2.39-8.8-2.72-13.26-1.22-16.3,4.05-30.34,15.54-42.02,2.61-2.65,5.27-5.32,7.42-8.33,1.07-1.51,1.71-3.95,1.34-5.73-.64-3.07-3.95-4.25-7.25-3.25-5.06,1.55-9.46,4.31-12.79,8.3-5.74,6.86-11.09,14.06-16.62,21.1-.64.82-1.41,1.54-2.12,2.31-.3-.07-.6-.14-.91-.21.11-1.52-.14-3.19.41-4.53,1.87-4.59,3.47-9.43,6.19-13.49,3.85-5.75,8.33-11.16,13.09-16.2,2.28-2.41,5.84-3.58,8.8-5.36,2.17-1.3,4.56-2.4,6.37-4.09,2.81-2.62,2.98-5.01,1.25-7.77-1.36-2.17-4.99-3.58-7.76-2.41-4.17,1.76-8.16,3.95-12.19,6.03-1.33.68-2.55,1.56-3.82,2.34-.18-.16-.37-.32-.55-.48.26-.71.4-1.51.81-2.13,4.95-7.42,11.05-13.64,19.73-16.35,4.05-1.27,8.48-1.32,12.75-1.88,2.22-.29,4.58-.08,6.64-.79,3.83-1.33,4.18-4.84.71-7.11-1.96-1.28-4.29-2.24-6.58-2.73-4.04-.86-8.18-1.24-12.28-1.83-.39-.06-.76-.21-1.27-.9,2.06-.59,4.09-1.47,6.19-1.71,9.04-1.02,18.02-.46,26.47,3.02,3.38,1.39,6.4,4.03,9.09,6.62,2.12,2.05,1.67,3.72-.49,5.74-8.76,8.14-14.47,18.26-18.76,29.26-.73,1.88-.95,3.86,1.17,5.07,2.03,1.16,3.57-.02,4.67-1.57,4.38-6.14,8.74-12.29,12.98-18.53,3.9-5.75,7.29-11.88,12.57-16.6,3.1-2.78,6.72-3.17,10.5-2.39,6.83,1.42,11.47,5.73,14.5,11.84,1.02,2.06,1.92,4.29,2.29,6.54.29,1.78,0,3.8-.57,5.54-.76,2.31-3.02,2.99-5.3,2.09-2-.79-3.97-1.81-6.05-2.17-3.35-.58-4.27.93-3.39,4.22,1.11,4.15,2.2,8.34,2.74,12.59,1.04,8.2-1.45,15.59-6.08,22.31-.59.86-1.42,1.55-2.14,2.32l-.89-.18c.1-1.95.11-3.91.33-5.85.39-3.45.91-6.89,1.37-10.34.68-5.09,1.22-10.2,2.07-15.26.44-2.59.25-4.97-.96-7.25-1.09-2.05-2.8-2.98-5.15-2.58-2.37.4-4.72,2.9-5.2,5.43-1.07,5.64.47,10.68,3.48,15.39.17.27.33.56.33.57-1.99,2.76-4.21,5.17-5.63,7.99-1.73,3.44-3.17,7.14-4.04,10.89-1.74,7.54-5.4,13.28-13.58,16.28.89-1.57,1.69-2.64,2.16-3.84,1.25-3.21,2.91-6.39,3.37-9.73.53-3.83-2.62-6.38-5.5-5.12-1.27.55-2.59,1.29-3.51,2.29-5.86,6.43-11.63,12.95-17.4,19.46-6.33,7.14-12.64,14.29-18.93,21.47-2.01,2.29-3.93,4.67-5.89,7-.32,0-.65-.01-.97-.02l-.04-.02Z"/>
    <path class="cls-7" d="m953.04,607.95c-.93-2.49-1.62-4.6-4.37-4.27-2.7.32-4.78,1.82-5.63,4.27-.8,2.29-1.4,4.88-1.18,7.26,1.1,12.18-4.06,21.18-13.59,28.13-.75.55-1.66.88-2.5,1.31l-.63-.45c.54-1.55.93-3.18,1.66-4.63,2.57-5.12,1.66-10.1-.89-14.77-1.43-2.61-1.39-4.94-.58-7.57.8-2.61,1.87-5.25,2.02-7.92.11-1.94-.65-4.29-1.82-5.86-1.74-2.34-4.91-1.83-6.43.7-2.2,3.67-2.21,7.6-.95,11.55.5,1.57,1.53,2.97,2.01,4.54.37,1.22.6,2.66.31,3.86-1.3,5.55-2.46,11.16-4.29,16.54-3.41,10.01-9.37,18.07-19.25,22.67-.66.31-1.48.26-2.93.49,2.32-3.28,4.36-5.86,6.04-8.65,1.23-2.02,2.39-4.25,2.85-6.53.31-1.55-.12-3.9-1.17-4.88-.94-.88-3.53-1.03-4.75-.35-2.83,1.58-5.55,3.58-7.82,5.91-4.8,4.93-9.1,10.34-13.93,15.22-4.45,4.5-9.73,7.97-16.05,10.92-.53-1.74-1.28-3.31-1.44-4.93-1.24-12.06.22-23.73,5.7-34.68,2.76-5.51,7.24-9.38,12.39-12.64,2.2-1.4,4.19-3.19,6.07-5.02,1.76-1.71,1.69-4.05.75-6.06-.86-1.83-2.72-2.4-4.81-2.49-3.85-.17-6.93,1.48-9.76,3.74-3.95,3.16-7.79,6.45-11.7,9.66-.68.55-1.46.98-2.19,1.46-.28-.17-.56-.35-.83-.52,1.57-3.54,2.85-7.25,4.78-10.58,3.71-6.43,8.74-11.73,15.51-14.99,3.25-1.57,6.83-2.46,10.26-3.64,2.87-.99,3.98-2.68,3.7-5.66-.25-2.64-2.1-4.57-4.76-4.98-6.86-1.06-13.17.74-19.25,3.72-.6.29-1.18.61-1.8.86-.29.11-.63.07-1.26.13.1-.66.03-1.27.29-1.65,3.66-5.33,8.32-9.57,14.51-11.61,4.15-1.37,8.47-1.14,12.78.04,2.51.69,5.21,1.04,7.81.99,3.23-.06,4.69-3.24,2.82-5.92-2.35-3.38-6.06-4.76-9.74-6.08-2.47-.88-5.01-1.56-7.52-2.33-.07-.24-.14-.47-.21-.71.92-.4,1.86-1.17,2.77-1.13,5.37.2,10.75.37,16.08.97,6.09.68,11.73,2.9,16.89,6.22,1.67,1.08,3.25,2.3,4.85,3.49,1.78,1.32,1.84,2.6.2,4.26-4.32,4.36-8.84,8.59-12.66,13.37-5.32,6.66-10.18,13.7-15.02,20.73-1.32,1.93-2.02,4.35-2.68,6.64-.58,2.02-.66,4.3,1.43,5.61,2.2,1.38,4.67.73,6.16-1.01,3.32-3.88,6.76-7.81,9.19-12.25,4.42-8.05,8-16.55,12.21-24.72,2.54-4.94,6.4-8.73,11.99-10.16,6.84-1.74,11.81,1.62,15.79,6.59,3.48,4.35,6.66,9.06,7,14.86.21,3.59-.26,7.24-.6,10.84-.06.65-1.02,1.21-1.81,2.09h-.02Z"/>
    <path class="cls-7" d="m1087.58,640.86c-1.06-1.59-1.89-3.42-3.24-4.71-3.79-3.66-7.49-7.53-11.79-10.5-3.89-2.68-8.06.22-8.03,4.97.03,4.34,2.54,7.81,4.08,11.61,2,4.94,4.19,9.8,3.61,15.33-.12,1.13-.3,2.26-1.09,3.73-.59-.64-1.2-1.27-1.76-1.94-1.48-1.76-2.76-3.74-4.47-5.23-.81-.7-2.55-.83-3.65-.5-.55.17-.89,1.99-.82,3.02.2,2.78,1.2,5.6.92,8.3-.67,6.57-1.07,13.27-4.11,19.35-.39.78-1.3,1.3-1.97,1.95-.38-.75-.97-1.46-1.1-2.25-.91-5.78-2.11-11.51-5.93-16.14-1.46-1.77-3.48-3.34-5.56-4.28-3.17-1.42-6.47.2-7.91,3.49-.81,1.86-1.3,3.86-2.03,6.12-2.57-2.91-3.41-6.33-3.53-9.68-.1-2.91.45-6.01,1.47-8.74,1.54-4.11,2.68-8.23,2.42-12.61-.28-4.88,1.51-8.64,5.19-11.8,2.18-1.87,4.28-4.02,4.01-7.36-.19-2.39-1.46-3.84-3.74-4.36-5.53-1.25-9.52,1.89-9.66,7.59,0,.42-.05.84,0,1.25.7,4.79-.93,8.56-4.16,12.2-2.24,2.53-3.33,6.08-5.16,9.59-.24-.23-1.16-.74-1.48-1.5-3.62-8.44-4.88-17.18-3.26-26.29.32-1.79.41-3.64.4-5.46,0-2.43-1.09-3.43-3.53-3.55-4.02-.19-7.55,3.37-8.34,8.4-.2,1.28-.37,2.57-.56,3.86l-.88.08c-.37-2.68-1.46-5.5-.96-8,.98-4.91,2.86-9.65,4.36-14.46.37-1.18.87-2.34,1.07-3.54.56-3.37-1.25-4.82-4.54-3.74-3.02.99-3.11,1-3.38-2.18-.23-2.63-.39-5.3-.23-7.93.27-4.39,2.66-7.5,6.68-9.12,4.4-1.77,8.93-1.95,13.16.52,1.13.66,2.14,1.9,2.69,3.11,2.27,4.97,4.38,10.01,6.47,15.05,2.09,5.04,4.1,10.12,6.16,15.18.12.3.32.58.51.85,1.06,1.53,2.35,3.45,4.29,2.16.85-.56,1.08-3.11.62-4.41-2.65-7.48-5.32-14.98-8.54-22.23-1.62-3.65-4.26-6.89-6.71-10.12-2.04-2.69-2.15-3.56.84-5.19,3.04-1.66,6.15-3.3,9.39-4.48,4.19-1.52,8.51-2.7,12.84-3.78,5.31-1.33,10.58-.47,15.79.77.2.05.35.29.5.42-3.03,1.3-6.14,2.36-8.96,3.96-1.63.93-3.35,2.48-4.05,4.15-2.1,5.04.51,8.31,6.63,9.17,3.93.55,7.98.54,11.82,1.45,8.96,2.12,14.73,8.19,18.62,16.26.24.49.08,1.18.11,1.78-3.21-1.81-6.02-3.91-9.18-5.07-4.14-1.52-8.45-3.14-13.04-1.1-3.96,1.75-5.29,5.9-2.31,9.09,2.22,2.38,5,4.34,7.78,6.08,7.74,4.82,13.63,11.17,16.34,19.97,1.08,3.52,1.25,7.32,1.83,11l-.98.42.04.02Z"/>
    <path class="cls-1" d="m975.75,707.4c10.51.32,20.69,2.34,30.72,5.57,7.17,2.31,14.01,5.21,20.32,9.28.98.63,1.86,2.12,1.98,3.29.52,5.27-2.14,9.41-5.38,13.17-5.86,6.78-13.48,10.61-22.1,12.42-5.5,1.16-11.11,1.83-16.66,2.76-1.76.3-2.87-.44-3.61-1.94-3.99-8.07-8.39-15.98-11.79-24.29-2.03-4.97-2.7-10.56-3.53-15.94-.47-3.04,1-4.19,4.08-4.3h5.99l-.02-.02Z"/>
    <path class="cls-1" d="m977.47,753.76c-2.58,0-4.87.24-7.1-.04-10.15-1.29-20.07-3.52-28.99-8.81-5.76-3.42-9.93-9.17-8.58-15.46.97-4.53,3.56-8.19,6.9-11.28,5.04-4.67,11.21-7.3,17.75-8.97,3.87-.98,4.68-.63,4.75,3.41.18,10.62,3.99,20.21,8.84,29.46,1.99,3.79,4.11,7.5,6.42,11.69h0Z"/>
    <path class="cls-1" d="m982.23,654.74c.23,2.29.71,4.59.65,6.87-.29,11.83-3.22,22.92-9.79,32.86-.81,1.22-2.35,2.21-3.76,2.69-1.38.47-2.2-.6-1.7-2.08,2.13-6.33,4.34-12.63,6.48-18.96,2.27-6.71,4.49-13.44,6.73-20.16.13-.38.27-.75.41-1.13.33-.03.66-.06.99-.08h-.01Z"/>
    <path class="cls-1" d="m1027.41,721.11c-11.83-7.65-23.97-12.24-37.12-14.83.8-.14,1.62-.48,2.39-.39,8.13.94,16.38,1.42,24.35,3.16,4.5.98,7.7,4.98,10.03,9.15.34.61.2,1.49.36,2.91h-.01Z"/>
    <path class="cls-1" d="m910.86,594.01c-3.4,9.16-7.08,18.14-15.48,25.1,0-1.49-.26-2.4.04-3.07,3.73-8.32,9.01-15.57,15.44-22.03Z"/>
    <path class="cls-1" d="m973.56,584.12c5.02,9.27,7.39,19.12,6.53,29.66-3-9.71-6.75-19.26-6.53-29.66Z"/>
    <path class="cls-5" d="m958.22,469.77c-.6,2.41-1.13,4.91-1.86,7.36-.45,1.54-1.67,1.48-2.38.36-2.22-3.47-2.58-7.31-1.33-11.19.29-.9,1.55-2.08,2.35-2.07.84,0,1.91,1.15,2.43,2.05.54.95.53,2.2.8,3.49h-.01Z"/>
    <path class="cls-1" d="m1031.59,632.36c.16-2.9-.02-5.87.6-8.66.47-2.14,2.73-2.8,4.81-2.7,2.08.09,2.87,1.5,2.4,3.73-.48,2.31-3.81,6.05-7.81,7.63Z"/>
    <path class="cls-1" d="m925.48,468.05c3.01-8.27,7.45-15.68,14.17-21.63"/>
    <path class="cls-1" d="m973.81,700.04c9.03-.97,17.96-.35,26.8,1.97,0,.21-.02.43-.03.64-8.93-.54-17.86-1.08-26.8-1.62.01-.33.02-.66.03-.99h0Z"/>
    <path class="cls-1" d="m923,616.87c-1.02-1.17-2.05-1.81-2.14-2.57-.29-2.27-.44-4.62-.16-6.88.11-.85,1.56-1.54,2.4-2.3.63.97,1.87,2.01,1.78,2.9-.3,2.75-1.11,5.45-1.88,8.84h0Z"/>
  </g>
  <polygon class="cls-2" points="462.11 570.17 433.54 694.57 806.03 694.59 786.6 570.17 462.11 570.17"/>
  <g>
    <path class="cls-6" d="m532.67,617.92v-.07c2.01-.77,3.43-2.45,3.8-4.38l3.18-16.66c.37-1.94-.33-3.62-1.9-4.38v-.07h11.19v.07c-1.79.77-3.14,2.45-3.48,4.38l-2.9,16.66c-.34,1.94.51,3.62,2.15,4.38v.07h-12.05Z"/>
    <path class="cls-6" d="m563.24,613.47c-.27,2.34-.17,3.51,1.58,4.38v.07h-9.45v-.07c1.53-.77,2.06-2.16,2.35-4.38l1.31-9.97c.2-1.5-.27-2.27-1.39-2.27-.94,0-1.88.29-2.86.84l-1.64,11.4c-.34,2.34-.25,3.62,1.1,4.38v.07h-9.41v-.07c2-.88,2.42-2.05,2.8-4.38l1.49-9.35c.37-2.34.34-3.51-1.28-4.38v-.07h7.29l-.27,1.9c2.52-1.42,4.74-2.12,6.65-2.12,2.35,0,3.21,1.24,3.01,3.03l-1.27,11Z"/>
    <path class="cls-6" d="m583.37,613.47c-.14,2.34.03,3.51,1.83,4.38v.07h-9.45v-.07c1.48-.77,1.94-2.16,2.1-4.38l.74-9.97c.11-1.5-.39-2.27-1.52-2.27-.94,0-1.86.29-2.81.84l-.99,11.4c-.2,2.34-.04,3.62,1.35,4.38v.07h-9.41v-.07c1.95-.88,2.3-2.05,2.54-4.38l.96-9.35c.24-2.34.14-3.51-1.53-4.38v-.07h7.29l-.17,1.9c2.44-1.42,4.62-2.12,6.53-2.12,2.35,0,3.28,1.24,3.18,3.03l-.64,11Z"/>
    <path class="cls-6" d="m589.36,616.06c-1.85-1.46-3.08-4.09-2.92-7.2s1.21-5.26,3.13-6.98c1.9-1.72,4.02-2.56,6.37-2.56,1.98,0,4.17.8,5.99,2.26,1.84,1.46,3.17,4.09,3.18,7.2s-.96,5.26-2.91,6.98c-1.93,1.72-4.15,2.56-6.63,2.56-2.09,0-4.34-.8-6.21-2.26Zm10.05-5.15c.04-3.03-.42-5.66-1.33-7.85-.9-2.19-1.92-3.29-3.08-3.29-1.34,0-2.66,2.56-2.82,6.98-.1,3.03.31,5.66,1.21,7.85.91,2.19,1.99,3.29,3.21,3.29,1.42,0,2.75-2.56,2.81-6.98Z"/>
    <path class="cls-6" d="m616.81,599.66h3.96v.07c-.46.47-1.14,1.94-2.05,4.42l-5.2,13.77h-.08l-6.3-13.81c-1.11-2.52-1.94-3.98-2.5-4.38v-.07s8.92,0,8.92,0v.07c-1.96.69-2.12,1.97-1.17,3.83l3.27,7.53,2.63-7.27c.82-2.01.45-3.47-1.48-4.09v-.07Z"/>
    <path class="cls-6" d="m636.4,613.47c.21,2.34.56,3.51,2.48,4.38v.07s-7.58,0-7.58,0l-.17-2.19c-1.88,1.57-3.56,2.37-4.98,2.37-1.61,0-2.9-.44-3.81-1.32-.87-.91-1.35-1.9-1.4-3.03-.06-1.28.28-2.27.97-3.03.69-.77,1.95-1.64,3.76-2.7,1.87-1.13,3.15-2.01,3.78-2.67.63-.69.91-1.53.83-2.56-.12-1.61-1.04-2.81-2.38-2.81s-3.5,1.39-6.55,4.16l-.08-.07,2.9-4.05c2.37-.4,4.36-.62,6.01-.62,3.43,0,5.08,1.75,5.32,4.27l.9,9.79Zm-5.41.37l-.65-8.51c-1.83,1.5-2.94,2.52-3.33,3.03-.67.91-1.01,2.19-.95,3.83l.03.4c.13,2.08,1.6,3.73,2.9,3.73s2.12-.99,2-2.48Z"/>
    <path class="cls-6" d="m651.36,617.92c-4.89.26-7.72-.11-9.1-1.57-.66-.73-1.12-1.39-1.31-2.01-.18-.62-.33-1.64-.47-3.03v-.11s-1.15-11.03-1.15-11.03h-2.13l-.04-.44c1.23-.04,2.47-.66,3.72-1.86,1.24-1.21,2.22-2.63,2.9-4.35h.07l.73,6.14h3.29l.07.51h-3.29l1.39,11.65c.19,1.61.61,2.81,1.22,3.65.61.8,2,1.61,4.1,2.37v.07Z"/>
    <path class="cls-6" d="m653.78,616.06c-2.11-1.46-3.82-4.09-4.23-7.2s.26-5.26,1.87-6.98c1.59-1.72,3.56-2.56,5.91-2.56,1.98,0,4.31.8,6.4,2.26,2.1,1.46,3.91,4.09,4.48,7.2s0,5.26-1.65,6.98c-1.62,1.72-3.69,2.56-6.17,2.56-2.09,0-4.49-.8-6.62-2.26Zm9.12-5.15c-.51-3.03-1.44-5.66-2.75-7.85-1.3-2.19-2.52-3.29-3.68-3.29-1.34,0-2.2,2.56-1.55,6.98.44,3.03,1.33,5.66,2.63,7.85,1.31,2.19,2.58,3.29,3.8,3.29,1.42,0,2.29-2.56,1.54-6.98Z"/>
    <path class="cls-6" d="m678.81,606.71c-.29-1.86-.81-3.4-1.53-4.68-.72-1.28-1.54-1.94-2.4-1.94h-.07l2.78,13.37c.49,2.34.97,3.51,3,4.38l.02.07h-9.76v-.07c1.67-.88,1.68-2.05,1.23-4.38l-1.8-9.35c-.45-2.34-.9-3.51-2.82-4.38v-.07s8.65,0,8.65,0c3.14,0,5.45,1.13,6.74,4.64l-4.02,2.41Z"/>
    <path class="cls-6" d="m687.69,617.3l-2.19-7.38h.04c.58.84,1.04,1.46,1.38,1.94.37.44.92,1.1,1.71,1.97.79.88,1.51,1.57,2.14,2.08,1.3.99,3.26,1.94,4.99,1.94,2.05,0,3.44-.95,2.87-3.1-.08-.88-1.33-1.79-2.35-2.27-.32-.18-.79-.37-1.51-.58-.68-.26-1.19-.4-1.52-.51-.34-.11-.97-.33-1.84-.58-4.78-1.46-6.49-3.03-7.12-5.77-.43-1.86-.09-3.29,1.07-4.24,1.15-.99,2.67-1.46,4.58-1.46,1.49,0,3.71.37,6.63,1.06l1.93,5.99h-.08c-3.68-4.53-6.05-6.58-8.89-6.58-1.9,0-3.14,1.24-2.74,2.89.2.84.73,1.46,2.08,2.04.68.29,1.26.51,1.77.69.5.18,1.29.44,2.4.77,4.63,1.35,7.18,3,8.09,6.32.54,1.97.24,3.43-.95,4.38-1.16.95-2.73,1.42-4.7,1.42-1.46,0-4.06-.33-7.8-1.02Z"/>
    <path class="cls-6" d="m573.35,636.19h6.45v.07c-1.3.77-2.62,2.48-3.94,5.08l-11.36,20.93h-.09l-6.25-16.58-10.11,16.58h-.09l-6.81-20.38c-.96-3.03-2.05-4.89-3.33-5.63v-.07h13v.07c-2.62.84-3.56,2.41-2.86,4.75l4.27,13.41,5.69-9.46-1.06-3.07c-1.08-3.03-2.25-4.89-3.56-5.63v-.07h13.07v.07c-2.62.84-3.49,2.41-2.7,4.75l4.66,13.26,7.06-13.26c1.17-2.34.18-4.02-2.04-4.75v-.07Z"/>
    <path class="cls-6" d="m592.6,655.66l.09.04c-.7,1.72-1.8,3.21-3.38,4.49-1.59,1.28-3.43,1.9-5.59,1.9-2.52,0-4.72-.8-6.55-2.45-1.81-1.64-2.6-3.94-2.38-6.98.48-6.39,5.93-9.5,10.39-9.5,2.23,0,4.06.73,5.57,2.16,1.52,1.42,2.32,3.32,2.42,5.77h-12.81c-.06,2.34.53,4.09,1.82,5.22,1.29,1.13,2.84,1.68,4.54,1.68,1.97,0,3.92-.77,5.89-2.34Zm-12.22-5.08h7.17c0-4.13-1.31-6.98-3.29-6.98-1.69,0-3.61,2.45-3.88,6.98Z"/>
    <path class="cls-6" d="m593.66,661.76v-.07c2.09-.88,2.38-2.05,2.43-4.38l.33-16.66c.05-2.34-.18-3.51-2.1-4.38v-.07h8.06l-.09,21.11c-.01,2.34.25,3.51,2.32,4.38v.07s-10.95,0-10.95,0Z"/>
    <path class="cls-6" d="m608.51,659.61c-1.94-1.64-2.91-3.91-2.93-6.87s1-5.26,3.03-6.98c2.05-1.72,4.31-2.56,6.79-2.56,3.03,0,5.88,1.5,7.49,4.27l-6.68,2.89-.09-.04c.52-1.32.6-2.74.25-4.27-.3-1.53-.96-2.3-1.97-2.3-1.65,0-2.91,2.34-2.82,6.76.05,2.52.69,4.38,1.94,5.59,1.3,1.21,2.75,1.83,4.42,1.83,2.23,0,4.16-.77,5.7-2.26l.09.04c-.49,1.5-1.56,2.96-3.13,4.31-1.58,1.35-3.36,2.01-5.31,2.01-2.52,0-4.78-.8-6.79-2.41Z"/>
    <path class="cls-6" d="m628.82,659.9c-2.24-1.46-3.91-4.09-4.07-7.2s.79-5.26,2.77-6.98c1.96-1.72,4.27-2.56,6.92-2.56,2.23,0,4.79.8,7,2.26,2.23,1.46,3.99,4.09,4.32,7.2s-.53,5.26-2.55,6.98c-1.99,1.72-4.39,2.56-7.18,2.56-2.34,0-4.96-.8-7.21-2.26Zm10.74-5.15c-.27-3.03-1.06-5.66-2.32-7.85-1.25-2.19-2.52-3.29-3.82-3.29-1.52,0-2.73,2.56-2.43,6.98.21,3.03.96,5.66,2.21,7.85,1.26,2.19,2.58,3.29,3.95,3.29,1.59,0,2.82-2.56,2.42-6.98Z"/>
    <path class="cls-6" d="m678.48,657.3c.44,2.34.92,3.51,3.16,4.38v.07s-10.54,0-10.54,0v-.07c1.45-.77,1.57-2.08,1.18-4.38l-1.71-9.94c-.26-1.53-1.03-2.3-2.26-2.3-1.1,0-2.07.29-2.96.84l.06.4,1.75,11c.37,2.34.78,3.54,2.64,4.38v.07s-10.19,0-10.19,0v-.07c1.47-.77,1.67-2.16,1.35-4.38l-1.42-9.94c-.19-1.32-.92-2.3-2.23-2.3-1.1,0-2.08.29-2.98.84l1.48,11.4c.3,2.34.78,3.62,2.51,4.38v.07s-10.54,0-10.54,0v-.07c1.97-.88,2.1-2.05,1.83-4.38l-1.07-9.35c-.27-2.34-.66-3.51-2.74-4.38v-.07s8.21,0,8.21,0l.25,1.9c2.56-1.42,4.82-2.12,6.89-2.12s3.44.73,4.05,2.16c2.48-1.42,4.76-2.16,6.86-2.16,2.7,0,4.02,1.24,4.36,3.03l2.06,11Z"/>
    <path class="cls-6" d="m699.4,655.66l.1.04c-.24,1.72-.94,3.21-2.17,4.49-1.25,1.28-2.92,1.9-5.08,1.9-2.52,0-4.94-.8-7.21-2.45-2.26-1.64-3.67-3.94-4.26-6.98-1.25-6.39,3.37-9.5,7.83-9.5,2.23,0,4.25.73,6.15,2.16,1.91,1.42,3.22,3.32,3.98,5.77h-12.81c.58,2.34,1.64,4.09,3.23,5.22,1.6,1.13,3.29,1.68,5,1.68,1.97,0,3.71-.77,5.25-2.34Zm-13.59-5.08h7.17c-1.11-4.13-3.19-6.98-5.17-6.98-1.69,0-2.94,2.45-2,6.98Z"/>
    <path class="cls-6" d="m705.29,654.38c-.18-.37-.76-1.28-1.79-2.78-1.97-3.03-4.07-6.87-5-10.63l-.54-2.19c-.41-1.64.75-2.96,2.61-2.96s3.69,1.31,4.13,2.96l.57,2.16c.49,1.86.74,3.73.76,5.59.02,1.86-.05,3.54-.3,5.08-.26,1.5-.36,2.45-.36,2.78h-.09Zm-2.26,4.86c-.4-1.61.84-2.92,2.8-2.92s3.83,1.32,4.26,2.92-.81,2.96-2.75,2.96-3.91-1.32-4.31-2.96Z"/>
  </g>
</svg>